<?xml version="1.0" encoding="UTF-8" standalone="no"?>
<svg
   xmlns:dc="http://purl.org/dc/elements/1.1/"
   xmlns:cc="http://creativecommons.org/ns#"
   xmlns:rdf="http://www.w3.org/1999/02/22-rdf-syntax-ns#"
   xmlns:svg="http://www.w3.org/2000/svg"
   xmlns="http://www.w3.org/2000/svg"
   xmlns:xlink="http://www.w3.org/1999/xlink"
   xmlns:sodipodi="http://sodipodi.sourceforge.net/DTD/sodipodi-0.dtd"
   xmlns:inkscape="http://www.inkscape.org/namespaces/inkscape"
   sodipodi:docname="DenormalizedWithMultipleRows.svg"
   inkscape:version="1.0rc1 (09960d6, 2020-04-09)"
   id="svg8076"
   version="1.1"
   viewBox="0 0 360 80.000023"
   height="80.000023mm"
   width="360mm">
  <defs
     id="defs8070">
    <pattern
       inkscape:collect="always"
       xlink:href="#Strips1_1"
       id="pattern3637"
       patternTransform="matrix(-0.86443153,-0.60408509,-5.0949262,7.2907194,0,0)" />
    <pattern
       inkscape:isstock="true"
       inkscape:stockid="Stripes 1:1"
       id="Strips1_1"
       patternTransform="translate(0,0) scale(10,10)"
       height="1"
       width="2"
       patternUnits="userSpaceOnUse"
       inkscape:collect="always">
      <rect
         id="rect2655"
         height="2"
         width="1"
         y="-0.5"
         x="0"
         style="fill:#ff0000;stroke:none" />
    </pattern>
    <pattern
       inkscape:collect="always"
       xlink:href="#pattern3637"
       id="pattern3759"
       patternTransform="matrix(-0.86443153,-0.60408509,-5.0949262,7.2907194,0,20)" />
    <pattern
       inkscape:collect="always"
       xlink:href="#Strips1_1"
       id="pattern7952"
       patternTransform="matrix(-0.86443153,-0.60408509,-5.0949262,7.2907194,0,0)" />
    <pattern
       inkscape:collect="always"
       xlink:href="#pattern3759"
       id="pattern3763"
       patternTransform="matrix(-0.86443153,-0.60408509,-5.0949262,7.2907194,0,40)" />
    <pattern
       inkscape:collect="always"
       xlink:href="#pattern3637"
       id="pattern7959"
       patternTransform="matrix(-0.86443153,-0.60408509,-5.0949262,7.2907194,0,20)" />
    <pattern
       inkscape:collect="always"
       xlink:href="#Strips1_1"
       id="pattern7961"
       patternTransform="matrix(-0.86443153,-0.60408509,-5.0949262,7.2907194,0,0)" />
    <pattern
       inkscape:collect="always"
       xlink:href="#pattern3763"
       id="pattern3767"
       patternTransform="matrix(-0.86443153,-0.60408509,-5.0949262,7.2907194,0,60)" />
    <pattern
       inkscape:collect="always"
       xlink:href="#pattern3759"
       id="pattern7968"
       patternTransform="matrix(-0.86443153,-0.60408509,-5.0949262,7.2907194,0,40)" />
    <pattern
       inkscape:collect="always"
       xlink:href="#pattern3637"
       id="pattern7970"
       patternTransform="matrix(-0.86443153,-0.60408509,-5.0949262,7.2907194,0,20)" />
    <pattern
       inkscape:collect="always"
       xlink:href="#Strips1_1"
       id="pattern7972"
       patternTransform="matrix(-0.86443153,-0.60408509,-5.0949262,7.2907194,0,0)" />
    <marker
       inkscape:stockid="Arrow1Send"
       orient="auto"
       refY="0"
       refX="0"
       id="marker4867"
       style="overflow:visible"
       inkscape:isstock="true">
      <path
         inkscape:connector-curvature="0"
         id="path4865"
         d="M 0,0 5,-5 -12.5,0 5,5 Z"
         style="fill:#000000;fill-opacity:1;fill-rule:evenodd;stroke:#000000;stroke-width:1pt;stroke-opacity:1"
         transform="matrix(-0.2,0,0,-0.2,-1.2,0)" />
    </marker>
    <marker
       inkscape:isstock="true"
       style="overflow:visible"
       id="marker4857"
       refX="0"
       refY="0"
       orient="auto"
       inkscape:stockid="Arrow1Send">
      <path
         inkscape:connector-curvature="0"
         transform="matrix(-0.2,0,0,-0.2,-1.2,0)"
         style="fill:#000000;fill-opacity:1;fill-rule:evenodd;stroke:#000000;stroke-width:1pt;stroke-opacity:1"
         d="M 0,0 5,-5 -12.5,0 5,5 Z"
         id="path4855" />
    </marker>
  </defs>
  <sodipodi:namedview
     inkscape:window-maximized="0"
     inkscape:window-y="23"
     inkscape:window-x="0"
     inkscape:window-height="855"
     inkscape:window-width="1252"
     fit-margin-bottom="0"
     fit-margin-right="0"
     fit-margin-left="0"
     fit-margin-top="0"
     showgrid="false"
     inkscape:document-rotation="0"
     inkscape:current-layer="layer1"
     inkscape:document-units="mm"
     inkscape:cy="59.752578"
     inkscape:cx="711.74354"
     inkscape:zoom="0.35"
     inkscape:pageshadow="2"
     inkscape:pageopacity="0.0"
     borderopacity="1.0"
     bordercolor="#666666"
     pagecolor="#ffffff"
     id="base" />
  <metadata
     id="metadata8073">
    <rdf:RDF>
      <cc:Work
         rdf:about="">
        <dc:format>image/svg+xml</dc:format>
        <dc:type
           rdf:resource="http://purl.org/dc/dcmitype/StillImage" />
        <dc:title></dc:title>
      </cc:Work>
    </rdf:RDF>
  </metadata>
  <g
     transform="translate(82.482145,-132.35713)"
     id="layer1"
     inkscape:groupmode="layer"
     inkscape:label="Layer 1">
    <rect
       style="fill:#c8c8c8;fill-opacity:1;stroke:#000000;stroke-width:0.49398;stroke-linecap:square;stroke-miterlimit:4;stroke-dasharray:none;stop-color:#000000"
       id="rect4679"
       width="19.50602"
       height="19.50602"
       x="47.764851"
       y="132.60413" />
    <rect
       y="132.60413"
       x="67.764847"
       height="19.50602"
       width="19.50602"
       id="rect4681"
       style="fill:#c8c8c8;fill-opacity:1;stroke:#000000;stroke-width:0.49398;stroke-linecap:square;stroke-miterlimit:4;stroke-dasharray:none;stop-color:#000000" />
    <rect
       style="fill:#c8c8c8;fill-opacity:1;stroke:#000000;stroke-width:0.49398;stroke-linecap:square;stroke-miterlimit:4;stroke-dasharray:none;stop-color:#000000"
       id="rect4683"
       width="19.50602"
       height="19.50602"
       x="87.764847"
       y="132.60413" />
    <rect
       style="fill:#c8c8c8;fill-opacity:1;stroke:#000000;stroke-width:0.49398;stroke-linecap:square;stroke-miterlimit:4;stroke-dasharray:none;stop-color:#000000"
       id="rect4685"
       width="19.50602"
       height="19.50602"
       x="127.76486"
       y="132.60413" />
    <rect
       y="132.60413"
       x="107.76485"
       height="19.50602"
       width="19.50602"
       id="rect4687"
       style="fill:#c8c8c8;fill-opacity:1;stroke:#000000;stroke-width:0.49398;stroke-linecap:square;stroke-miterlimit:4;stroke-dasharray:none;stop-color:#000000" />
    <rect
       style="fill:#ff3cdc;fill-opacity:1;stroke:#000000;stroke-width:0.528987;stroke-linecap:square;stroke-miterlimit:4;stroke-dasharray:none;stop-color:#000000"
       id="rect4689"
       width="4.4710135"
       height="4.4710135"
       x="115.28235"
       y="140.12164" />
    <g
       transform="translate(-82.482145,132.35713)"
       id="g4707">
      <rect
         y="0.2469908"
         x="0.24699089"
         height="19.50602"
         width="19.50602"
         id="rect4691"
         style="fill:#ff0000;fill-opacity:1;stroke:#000000;stroke-width:0.493981;stroke-linecap:square;stroke-miterlimit:4;stroke-dasharray:none;stop-color:#000000" />
      <rect
         style="fill:#ff0000;fill-opacity:1;stroke:#000000;stroke-width:0.493981;stroke-linecap:square;stroke-miterlimit:4;stroke-dasharray:none;stop-color:#000000"
         id="rect4693"
         width="19.50602"
         height="19.50602"
         x="20.24699"
         y="0.2469908" />
      <rect
         y="0.2469908"
         x="40.24699"
         height="19.50602"
         width="19.50602"
         id="rect4695"
         style="fill:#ff0000;fill-opacity:1;stroke:#000000;stroke-width:0.493981;stroke-linecap:square;stroke-miterlimit:4;stroke-dasharray:none;stop-color:#000000" />
      <rect
         style="fill:url(#pattern3637);fill-opacity:1;stroke:#000000;stroke-width:0.493981;stroke-linecap:square;stroke-miterlimit:4;stroke-dasharray:none;stroke-opacity:1;stop-color:#ff0000"
         id="rect4697"
         width="19.50602"
         height="19.50602"
         x="60.24699"
         y="0.2469908" />
      <rect
         y="0.2469908"
         x="80.246994"
         height="19.50602"
         width="19.50602"
         id="rect4699"
         style="fill:#ff0000;fill-opacity:1;stroke:#000000;stroke-width:0.493981;stroke-linecap:square;stroke-miterlimit:4;stroke-dasharray:none;stop-color:#000000" />
      <rect
         y="20.24699"
         x="60.24699"
         height="19.50602"
         width="19.50602"
         id="rect4701"
         style="fill:url(#pattern3759);fill-opacity:1;stroke:#000000;stroke-width:0.493981;stroke-linecap:square;stroke-miterlimit:4;stroke-dasharray:none;stroke-opacity:1;stop-color:#ff0000" />
      <rect
         style="fill:url(#pattern3763);fill-opacity:1;stroke:#000000;stroke-width:0.493981;stroke-linecap:square;stroke-miterlimit:4;stroke-dasharray:none;stroke-opacity:1;stop-color:#ff0000"
         id="rect4703"
         width="19.50602"
         height="19.50602"
         x="60.24699"
         y="40.24699" />
      <rect
         y="60.24699"
         x="60.24699"
         height="19.50602"
         width="19.50602"
         id="rect4705"
         style="fill:url(#pattern3767);fill-opacity:1;stroke:#000000;stroke-width:0.493981;stroke-linecap:square;stroke-miterlimit:4;stroke-dasharray:none;stroke-opacity:1;stop-color:#ff0000" />
    </g>
    <g
       style="fill:#00ff00;fill-opacity:1"
       transform="translate(177.51786,132.35713)"
       id="g4719">
      <rect
         y="0.2469908"
         x="0.24699089"
         height="19.50602"
         width="19.50602"
         id="rect4709"
         style="fill:#00ff00;fill-opacity:1;stroke:#000000;stroke-width:0.493981;stroke-linecap:square;stroke-miterlimit:4;stroke-dasharray:none;stop-color:#000000" />
      <rect
         style="fill:#00ff00;fill-opacity:1;stroke:#000000;stroke-width:0.493981;stroke-linecap:square;stroke-miterlimit:4;stroke-dasharray:none;stop-color:#000000"
         id="rect4711"
         width="19.50602"
         height="19.50602"
         x="20.24699"
         y="0.2469908" />
      <rect
         y="0.2469908"
         x="40.24699"
         height="19.50602"
         width="19.50602"
         id="rect4713"
         style="fill:#00ff00;fill-opacity:1;stroke:#000000;stroke-width:0.493981;stroke-linecap:square;stroke-miterlimit:4;stroke-dasharray:none;stop-color:#000000" />
      <rect
         style="fill:#00ff00;fill-opacity:1;stroke:#000000;stroke-width:0.493981;stroke-linecap:square;stroke-miterlimit:4;stroke-dasharray:none;stop-color:#000000"
         id="rect4715"
         width="19.50602"
         height="19.50602"
         x="60.24699"
         y="0.2469908" />
      <rect
         y="0.2469908"
         x="80.246994"
         height="19.50602"
         width="19.50602"
         id="rect4717"
         style="fill:#00ff00;fill-opacity:1;stroke:#000000;stroke-width:0.493981;stroke-linecap:square;stroke-miterlimit:4;stroke-dasharray:none;stop-color:#000000" />
    </g>
    <path
       style="fill:none;stroke:#000000;stroke-width:3;stroke-linecap:butt;stroke-linejoin:miter;stroke-miterlimit:4;stroke-dasharray:none;stroke-opacity:1;marker-end:url(#marker4867)"
       d="m 20.783735,142.35713 h 19.59877"
       id="path4721"
       inkscape:connector-curvature="0" />
    <path
       inkscape:connector-curvature="0"
       id="path4723"
       d="m 150.78386,142.35713 h 19.59877"
       style="fill:none;stroke:#000000;stroke-width:3;stroke-linecap:butt;stroke-linejoin:miter;stroke-miterlimit:4;stroke-dasharray:none;stroke-opacity:1;marker-end:url(#marker4857)" />
    <g
       id="g4733"
       transform="translate(-82.482145,152.35713)">
      <rect
         style="fill:#ff0000;fill-opacity:1;stroke:#000000;stroke-width:0.493981;stroke-linecap:square;stroke-miterlimit:4;stroke-dasharray:none;stop-color:#000000"
         id="rect4725"
         width="19.50602"
         height="19.50602"
         x="0.24699089"
         y="0.2469908" />
      <rect
         y="0.2469908"
         x="20.24699"
         height="19.50602"
         width="19.50602"
         id="rect4727"
         style="fill:#ff0000;fill-opacity:1;stroke:#000000;stroke-width:0.493981;stroke-linecap:square;stroke-miterlimit:4;stroke-dasharray:none;stop-color:#000000" />
      <rect
         style="fill:#ff0000;fill-opacity:1;stroke:#000000;stroke-width:0.493981;stroke-linecap:square;stroke-miterlimit:4;stroke-dasharray:none;stop-color:#000000"
         id="rect4729"
         width="19.50602"
         height="19.50602"
         x="40.24699"
         y="0.2469908" />
      <rect
         style="fill:#ff0000;fill-opacity:1;stroke:#000000;stroke-width:0.493981;stroke-linecap:square;stroke-miterlimit:4;stroke-dasharray:none;stop-color:#000000"
         id="rect4731"
         width="19.50602"
         height="19.50602"
         x="80.246994"
         y="0.2469908" />
    </g>
    <g
       transform="translate(-82.482145,172.35713)"
       id="g4743">
      <rect
         y="0.2469908"
         x="0.24699089"
         height="19.50602"
         width="19.50602"
         id="rect4735"
         style="fill:#ff0000;fill-opacity:1;stroke:#000000;stroke-width:0.493981;stroke-linecap:square;stroke-miterlimit:4;stroke-dasharray:none;stop-color:#000000" />
      <rect
         style="fill:#ff0000;fill-opacity:1;stroke:#000000;stroke-width:0.493981;stroke-linecap:square;stroke-miterlimit:4;stroke-dasharray:none;stop-color:#000000"
         id="rect4737"
         width="19.50602"
         height="19.50602"
         x="20.24699"
         y="0.2469908" />
      <rect
         y="0.2469908"
         x="40.24699"
         height="19.50602"
         width="19.50602"
         id="rect4739"
         style="fill:#ff0000;fill-opacity:1;stroke:#000000;stroke-width:0.493981;stroke-linecap:square;stroke-miterlimit:4;stroke-dasharray:none;stop-color:#000000" />
      <rect
         y="0.2469908"
         x="80.246994"
         height="19.50602"
         width="19.50602"
         id="rect4741"
         style="fill:#ff0000;fill-opacity:1;stroke:#000000;stroke-width:0.493981;stroke-linecap:square;stroke-miterlimit:4;stroke-dasharray:none;stop-color:#000000" />
    </g>
    <g
       id="g4753"
       transform="translate(-82.482145,192.35712)">
      <rect
         style="fill:#ff0000;fill-opacity:1;stroke:#000000;stroke-width:0.493981;stroke-linecap:square;stroke-miterlimit:4;stroke-dasharray:none;stop-color:#000000"
         id="rect4745"
         width="19.50602"
         height="19.50602"
         x="0.24699089"
         y="0.2469908" />
      <rect
         y="0.2469908"
         x="20.24699"
         height="19.50602"
         width="19.50602"
         id="rect4747"
         style="fill:#ff0000;fill-opacity:1;stroke:#000000;stroke-width:0.493981;stroke-linecap:square;stroke-miterlimit:4;stroke-dasharray:none;stop-color:#000000" />
      <rect
         style="fill:#ff0000;fill-opacity:1;stroke:#000000;stroke-width:0.493981;stroke-linecap:square;stroke-miterlimit:4;stroke-dasharray:none;stop-color:#000000"
         id="rect4749"
         width="19.50602"
         height="19.50602"
         x="40.24699"
         y="0.2469908" />
      <rect
         style="fill:#ff0000;fill-opacity:1;stroke:#000000;stroke-width:0.493981;stroke-linecap:square;stroke-miterlimit:4;stroke-dasharray:none;stop-color:#000000"
         id="rect4751"
         width="19.50602"
         height="19.50602"
         x="80.246994"
         y="0.2469908" />
    </g>
    <g
       id="g4757"
       transform="matrix(0.13517525,0,0,0.13517525,-79.192033,6.7822414)">
      <path
         id="path4755"
         overflow="visible"
         display="inline"
         visibility="visible"
         marker="none"
         stroke="none"
         fill="#000000"
         d="m 19.7475,1000.7285 c 6.71919,-6.7192 16.56641,-8.39395 24.85922,-5.06023 l 29.588,-29.588 12.7943,-1.34786 -2.8948,16.90423 -7.7782,0.70708 -0.7071,7.77821 -7.7782,0.70707 -0.707,7.77819 -9.7891,9.78901 c 3.3338,8.2928 1.659,18.14 -5.0602,24.8592 -8.98201,8.9821 -23.54485,8.9821 -32.52691,0 -8.98204,-8.982 -8.98204,-23.5449 -10e-6,-32.5269 z m 7.07106,16.9706 c -2.34314,2.3431 -2.34313,6.1421 2e-5,8.4853 2.34313,2.3431 6.14215,2.3431 8.48528,0 2.34313,-2.3432 2.34313,-6.1422 -1e-5,-8.4853 -2.34314,-2.3432 -6.14216,-2.3432 -8.48529,0 z"
         style="color:#000000;enable-background:accumulate"
         inkscape:connector-curvature="0" />
    </g>
    <g
       transform="matrix(0.13517525,0,0,0.13517525,-79.192033,26.782191)"
       id="g4761">
      <path
         inkscape:connector-curvature="0"
         style="color:#000000;enable-background:accumulate"
         d="m 19.7475,1000.7285 c 6.71919,-6.7192 16.56641,-8.39395 24.85922,-5.06023 l 29.588,-29.588 12.7943,-1.34786 -2.8948,16.90423 -7.7782,0.70708 -0.7071,7.77821 -7.7782,0.70707 -0.707,7.77819 -9.7891,9.78901 c 3.3338,8.2928 1.659,18.14 -5.0602,24.8592 -8.98201,8.9821 -23.54485,8.9821 -32.52691,0 -8.98204,-8.982 -8.98204,-23.5449 -10e-6,-32.5269 z m 7.07106,16.9706 c -2.34314,2.3431 -2.34313,6.1421 2e-5,8.4853 2.34313,2.3431 6.14215,2.3431 8.48528,0 2.34313,-2.3432 2.34313,-6.1422 -1e-5,-8.4853 -2.34314,-2.3432 -6.14216,-2.3432 -8.48529,0 z"
         fill="#000000"
         stroke="none"
         marker="none"
         visibility="visible"
         display="inline"
         overflow="visible"
         id="path4759" />
    </g>
    <g
       id="g4765"
       transform="matrix(0.13517525,0,0,0.13517525,-79.192033,46.782189)">
      <path
         id="path4763"
         overflow="visible"
         display="inline"
         visibility="visible"
         marker="none"
         stroke="none"
         fill="#000000"
         d="m 19.7475,1000.7285 c 6.71919,-6.7192 16.56641,-8.39395 24.85922,-5.06023 l 29.588,-29.588 12.7943,-1.34786 -2.8948,16.90423 -7.7782,0.70708 -0.7071,7.77821 -7.7782,0.70707 -0.707,7.77819 -9.7891,9.78901 c 3.3338,8.2928 1.659,18.14 -5.0602,24.8592 -8.98201,8.9821 -23.54485,8.9821 -32.52691,0 -8.98204,-8.982 -8.98204,-23.5449 -10e-6,-32.5269 z m 7.07106,16.9706 c -2.34314,2.3431 -2.34313,6.1421 2e-5,8.4853 2.34313,2.3431 6.14215,2.3431 8.48528,0 2.34313,-2.3432 2.34313,-6.1422 -1e-5,-8.4853 -2.34314,-2.3432 -6.14216,-2.3432 -8.48529,0 z"
         style="color:#000000;enable-background:accumulate"
         inkscape:connector-curvature="0" />
    </g>
    <g
       style="fill:#ffffff;fill-opacity:1"
       transform="matrix(0.13517525,0,0,0.13517525,-79.192033,66.782189)"
       id="g4769">
      <path
         inkscape:connector-curvature="0"
         style="color:#000000;fill:#ffffff;fill-opacity:1;enable-background:accumulate"
         d="m 19.7475,1000.7285 c 6.71919,-6.7192 16.56641,-8.39395 24.85922,-5.06023 l 29.588,-29.588 12.7943,-1.34786 -2.8948,16.90423 -7.7782,0.70708 -0.7071,7.77821 -7.7782,0.70707 -0.707,7.77819 -9.7891,9.78901 c 3.3338,8.2928 1.659,18.14 -5.0602,24.8592 -8.98201,8.9821 -23.54485,8.9821 -32.52691,0 -8.98204,-8.982 -8.98204,-23.5449 -10e-6,-32.5269 z m 7.07106,16.9706 c -2.34314,2.3431 -2.34313,6.1421 2e-5,8.4853 2.34313,2.3431 6.14215,2.3431 8.48528,0 2.34313,-2.3432 2.34313,-6.1422 -1e-5,-8.4853 -2.34314,-2.3432 -6.14216,-2.3432 -8.48529,0 z"
         fill="#000000"
         stroke="none"
         marker="none"
         visibility="visible"
         display="inline"
         overflow="visible"
         id="path4767" />
    </g>
    <text
       id="text4773"
       y="143.68111"
       x="247.43369"
       style="font-size:6.35px;line-height:1.25;font-family:Kokonor;-inkscape-font-specification:Kokonor;stroke-width:0.264583"
       xml:space="preserve"><tspan
         style="font-style:normal;font-variant:normal;font-weight:bold;font-stretch:normal;font-family:Arial;-inkscape-font-specification:'Arial Bold';text-align:center;text-anchor:middle;stroke-width:0.264583"
         y="143.68111"
         x="247.43369"
         id="tspan4771"
         sodipodi:role="line">1,2,3</tspan></text>
    <g
       transform="translate(-82.482145,52.35713)"
       id="g4787">
      <rect
         style="fill:#c8c8c8;fill-opacity:1;stroke:#000000;stroke-width:0.493981;stroke-linecap:square;stroke-miterlimit:4;stroke-dasharray:none;stop-color:#000000"
         id="rect4775"
         width="19.50602"
         height="19.50602"
         x="0.24699089"
         y="0.2469908"
         transform="translate(130,100)" />
      <rect
         y="0.2469908"
         x="20.24699"
         height="19.50602"
         width="19.50602"
         id="rect4777"
         style="fill:#c8c8c8;fill-opacity:1;stroke:#000000;stroke-width:0.493981;stroke-linecap:square;stroke-miterlimit:4;stroke-dasharray:none;stop-color:#000000"
         transform="translate(130,100)" />
      <rect
         style="fill:#c8c8c8;fill-opacity:1;stroke:#000000;stroke-width:0.493981;stroke-linecap:square;stroke-miterlimit:4;stroke-dasharray:none;stop-color:#000000"
         id="rect4779"
         width="19.50602"
         height="19.50602"
         x="40.24699"
         y="0.2469908"
         transform="translate(130,100)" />
      <rect
         style="fill:#c8c8c8;fill-opacity:1;stroke:#000000;stroke-width:0.493981;stroke-linecap:square;stroke-miterlimit:4;stroke-dasharray:none;stop-color:#000000"
         id="rect4781"
         width="19.50602"
         height="19.50602"
         x="80.246994"
         y="0.2469908"
         transform="translate(130,100)" />
      <rect
         y="0.2469908"
         x="60.24699"
         height="19.50602"
         width="19.50602"
         id="rect4783"
         style="fill:#c8c8c8;fill-opacity:1;stroke:#000000;stroke-width:0.493981;stroke-linecap:square;stroke-miterlimit:4;stroke-dasharray:none;stop-color:#000000"
         transform="translate(130,100)" />
      <rect
         style="fill:#ff3cdc;fill-opacity:1;stroke:#000000;stroke-width:0.528987;stroke-linecap:square;stroke-miterlimit:4;stroke-dasharray:none;stop-color:#000000"
         id="rect4785"
         width="4.4710135"
         height="4.4710135"
         x="197.7645"
         y="107.7645" />
    </g>
    <g
       id="g4801"
       transform="translate(-82.482145,72.357129)">
      <rect
         transform="translate(130,100)"
         y="0.2469908"
         x="0.24699089"
         height="19.50602"
         width="19.50602"
         id="rect4789"
         style="fill:#c8c8c8;fill-opacity:1;stroke:#000000;stroke-width:0.493981;stroke-linecap:square;stroke-miterlimit:4;stroke-dasharray:none;stop-color:#000000" />
      <rect
         transform="translate(130,100)"
         style="fill:#c8c8c8;fill-opacity:1;stroke:#000000;stroke-width:0.493981;stroke-linecap:square;stroke-miterlimit:4;stroke-dasharray:none;stop-color:#000000"
         id="rect4791"
         width="19.50602"
         height="19.50602"
         x="20.24699"
         y="0.2469908" />
      <rect
         transform="translate(130,100)"
         y="0.2469908"
         x="40.24699"
         height="19.50602"
         width="19.50602"
         id="rect4793"
         style="fill:#c8c8c8;fill-opacity:1;stroke:#000000;stroke-width:0.493981;stroke-linecap:square;stroke-miterlimit:4;stroke-dasharray:none;stop-color:#000000" />
      <rect
         transform="translate(130,100)"
         y="0.2469908"
         x="80.246994"
         height="19.50602"
         width="19.50602"
         id="rect4795"
         style="fill:#c8c8c8;fill-opacity:1;stroke:#000000;stroke-width:0.493981;stroke-linecap:square;stroke-miterlimit:4;stroke-dasharray:none;stop-color:#000000" />
      <rect
         transform="translate(130,100)"
         style="fill:#c8c8c8;fill-opacity:1;stroke:#000000;stroke-width:0.493981;stroke-linecap:square;stroke-miterlimit:4;stroke-dasharray:none;stop-color:#000000"
         id="rect4797"
         width="19.50602"
         height="19.50602"
         x="60.24699"
         y="0.2469908" />
      <rect
         y="107.7645"
         x="197.7645"
         height="4.4710135"
         width="4.4710135"
         id="rect4799"
         style="fill:#ff3cdc;fill-opacity:1;stroke:#000000;stroke-width:0.528987;stroke-linecap:square;stroke-miterlimit:4;stroke-dasharray:none;stop-color:#000000" />
    </g>
    <rect
       y="192.60414"
       x="47.764851"
       height="19.50602"
       width="19.50602"
       id="rect4803"
       style="fill:#c8c8c8;fill-opacity:1;stroke:#000000;stroke-width:0.49398;stroke-linecap:square;stroke-miterlimit:4;stroke-dasharray:none;stop-color:#000000" />
    <rect
       style="fill:#c8c8c8;fill-opacity:1;stroke:#000000;stroke-width:0.49398;stroke-linecap:square;stroke-miterlimit:4;stroke-dasharray:none;stop-color:#000000"
       id="rect4805"
       width="19.50602"
       height="19.50602"
       x="67.764847"
       y="192.60414" />
    <rect
       y="192.60414"
       x="87.764847"
       height="19.50602"
       width="19.50602"
       id="rect4807"
       style="fill:#c8c8c8;fill-opacity:1;stroke:#000000;stroke-width:0.49398;stroke-linecap:square;stroke-miterlimit:4;stroke-dasharray:none;stop-color:#000000" />
    <rect
       y="192.60414"
       x="127.76486"
       height="19.50602"
       width="19.50602"
       id="rect4809"
       style="fill:#c8c8c8;fill-opacity:1;stroke:#000000;stroke-width:0.49398;stroke-linecap:square;stroke-miterlimit:4;stroke-dasharray:none;stop-color:#000000" />
    <rect
       style="fill:#c8c8c8;fill-opacity:1;stroke:#000000;stroke-width:0.49398;stroke-linecap:square;stroke-miterlimit:4;stroke-dasharray:none;stop-color:#000000"
       id="rect4811"
       width="19.50602"
       height="19.50602"
       x="107.76485"
       y="192.60414" />
    <rect
       y="200.12163"
       x="115.28235"
       height="4.4710135"
       width="4.4710135"
       id="rect4813"
       style="fill:#ff3cdc;fill-opacity:1;stroke:#000000;stroke-width:0.528987;stroke-linecap:square;stroke-miterlimit:4;stroke-dasharray:none;stop-color:#000000" />
    <g
       transform="matrix(0.13517525,0,0,0.13517525,50.808095,6.7822414)"
       id="g4817">
      <path
         inkscape:connector-curvature="0"
         style="color:#000000;enable-background:accumulate"
         d="m 19.7475,1000.7285 c 6.71919,-6.7192 16.56641,-8.39395 24.85922,-5.06023 l 29.588,-29.588 12.7943,-1.34786 -2.8948,16.90423 -7.7782,0.70708 -0.7071,7.77821 -7.7782,0.70707 -0.707,7.77819 -9.7891,9.78901 c 3.3338,8.2928 1.659,18.14 -5.0602,24.8592 -8.98201,8.9821 -23.54485,8.9821 -32.52691,0 -8.98204,-8.982 -8.98204,-23.5449 -10e-6,-32.5269 z m 7.07106,16.9706 c -2.34314,2.3431 -2.34313,6.1421 2e-5,8.4853 2.34313,2.3431 6.14215,2.3431 8.48528,0 2.34313,-2.3432 2.34313,-6.1422 -1e-5,-8.4853 -2.34314,-2.3432 -6.14216,-2.3432 -8.48529,0 z"
         fill="#000000"
         stroke="none"
         marker="none"
         visibility="visible"
         display="inline"
         overflow="visible"
         id="path4815" />
    </g>
    <g
       id="g4821"
       transform="matrix(0.13517525,0,0,0.13517525,50.808095,26.782191)">
      <path
         id="path4819"
         overflow="visible"
         display="inline"
         visibility="visible"
         marker="none"
         stroke="none"
         fill="#000000"
         d="m 19.7475,1000.7285 c 6.71919,-6.7192 16.56641,-8.39395 24.85922,-5.06023 l 29.588,-29.588 12.7943,-1.34786 -2.8948,16.90423 -7.7782,0.70708 -0.7071,7.77821 -7.7782,0.70707 -0.707,7.77819 -9.7891,9.78901 c 3.3338,8.2928 1.659,18.14 -5.0602,24.8592 -8.98201,8.9821 -23.54485,8.9821 -32.52691,0 -8.98204,-8.982 -8.98204,-23.5449 -10e-6,-32.5269 z m 7.07106,16.9706 c -2.34314,2.3431 -2.34313,6.1421 2e-5,8.4853 2.34313,2.3431 6.14215,2.3431 8.48528,0 2.34313,-2.3432 2.34313,-6.1422 -1e-5,-8.4853 -2.34314,-2.3432 -6.14216,-2.3432 -8.48529,0 z"
         style="color:#000000;enable-background:accumulate"
         inkscape:connector-curvature="0" />
    </g>
    <g
       transform="matrix(0.13517525,0,0,0.13517525,50.808095,46.782189)"
       id="g4825">
      <path
         inkscape:connector-curvature="0"
         style="color:#000000;enable-background:accumulate"
         d="m 19.7475,1000.7285 c 6.71919,-6.7192 16.56641,-8.39395 24.85922,-5.06023 l 29.588,-29.588 12.7943,-1.34786 -2.8948,16.90423 -7.7782,0.70708 -0.7071,7.77821 -7.7782,0.70707 -0.707,7.77819 -9.7891,9.78901 c 3.3338,8.2928 1.659,18.14 -5.0602,24.8592 -8.98201,8.9821 -23.54485,8.9821 -32.52691,0 -8.98204,-8.982 -8.98204,-23.5449 -10e-6,-32.5269 z m 7.07106,16.9706 c -2.34314,2.3431 -2.34313,6.1421 2e-5,8.4853 2.34313,2.3431 6.14215,2.3431 8.48528,0 2.34313,-2.3432 2.34313,-6.1422 -1e-5,-8.4853 -2.34314,-2.3432 -6.14216,-2.3432 -8.48529,0 z"
         fill="#000000"
         stroke="none"
         marker="none"
         visibility="visible"
         display="inline"
         overflow="visible"
         id="path4823" />
    </g>
    <g
       id="g4829"
       transform="matrix(0.13517525,0,0,0.13517525,50.808095,66.782189)"
       style="fill:#ffffff;fill-opacity:1">
      <path
         id="path4827"
         overflow="visible"
         display="inline"
         visibility="visible"
         marker="none"
         stroke="none"
         fill="#000000"
         d="m 19.7475,1000.7285 c 6.71919,-6.7192 16.56641,-8.39395 24.85922,-5.06023 l 29.588,-29.588 12.7943,-1.34786 -2.8948,16.90423 -7.7782,0.70708 -0.7071,7.77821 -7.7782,0.70707 -0.707,7.77819 -9.7891,9.78901 c 3.3338,8.2928 1.659,18.14 -5.0602,24.8592 -8.98201,8.9821 -23.54485,8.9821 -32.52691,0 -8.98204,-8.982 -8.98204,-23.5449 -10e-6,-32.5269 z m 7.07106,16.9706 c -2.34314,2.3431 -2.34313,6.1421 2e-5,8.4853 2.34313,2.3431 6.14215,2.3431 8.48528,0 2.34313,-2.3432 2.34313,-6.1422 -1e-5,-8.4853 -2.34314,-2.3432 -6.14216,-2.3432 -8.48529,0 z"
         style="color:#000000;fill:#ffffff;fill-opacity:1;enable-background:accumulate"
         inkscape:connector-curvature="0" />
    </g>
    <g
       id="g4841"
       transform="translate(177.51786,152.35713)"
       style="fill:#00ff00;fill-opacity:1">
      <rect
         style="fill:#00ff00;fill-opacity:1;stroke:#000000;stroke-width:0.493981;stroke-linecap:square;stroke-miterlimit:4;stroke-dasharray:none;stop-color:#000000"
         id="rect4831"
         width="19.50602"
         height="19.50602"
         x="0.24699089"
         y="0.2469908" />
      <rect
         y="0.2469908"
         x="20.24699"
         height="19.50602"
         width="19.50602"
         id="rect4833"
         style="fill:#00ff00;fill-opacity:1;stroke:#000000;stroke-width:0.493981;stroke-linecap:square;stroke-miterlimit:4;stroke-dasharray:none;stop-color:#000000" />
      <rect
         style="fill:#00ff00;fill-opacity:1;stroke:#000000;stroke-width:0.493981;stroke-linecap:square;stroke-miterlimit:4;stroke-dasharray:none;stop-color:#000000"
         id="rect4835"
         width="19.50602"
         height="19.50602"
         x="40.24699"
         y="0.2469908" />
      <rect
         y="0.2469908"
         x="60.24699"
         height="19.50602"
         width="19.50602"
         id="rect4837"
         style="fill:#00ff00;fill-opacity:1;stroke:#000000;stroke-width:0.493981;stroke-linecap:square;stroke-miterlimit:4;stroke-dasharray:none;stop-color:#000000" />
      <rect
         style="fill:#00ff00;fill-opacity:1;stroke:#000000;stroke-width:0.493981;stroke-linecap:square;stroke-miterlimit:4;stroke-dasharray:none;stop-color:#000000"
         id="rect4839"
         width="19.50602"
         height="19.50602"
         x="80.246994"
         y="0.2469908" />
    </g>
    <text
       xml:space="preserve"
       style="font-size:6.35px;line-height:1.25;font-family:Kokonor;-inkscape-font-specification:Kokonor;stroke-width:0.264583"
       x="247.43402"
       y="163.6812"
       id="text4845"><tspan
         sodipodi:role="line"
         id="tspan4843"
         x="247.43402"
         y="163.6812"
         style="font-style:normal;font-variant:normal;font-weight:bold;font-stretch:normal;font-family:Arial;-inkscape-font-specification:'Arial Bold';text-align:center;text-anchor:middle;stroke-width:0.264583">5</tspan></text>
    <g
       id="g4849"
       transform="matrix(0.13517525,0,0,0.13517525,180.8081,6.7822414)">
      <path
         id="path4847"
         overflow="visible"
         display="inline"
         visibility="visible"
         marker="none"
         stroke="none"
         fill="#000000"
         d="m 19.7475,1000.7285 c 6.71919,-6.7192 16.56641,-8.39395 24.85922,-5.06023 l 29.588,-29.588 12.7943,-1.34786 -2.8948,16.90423 -7.7782,0.70708 -0.7071,7.77821 -7.7782,0.70707 -0.707,7.77819 -9.7891,9.78901 c 3.3338,8.2928 1.659,18.14 -5.0602,24.8592 -8.98201,8.9821 -23.54485,8.9821 -32.52691,0 -8.98204,-8.982 -8.98204,-23.5449 -10e-6,-32.5269 z m 7.07106,16.9706 c -2.34314,2.3431 -2.34313,6.1421 2e-5,8.4853 2.34313,2.3431 6.14215,2.3431 8.48528,0 2.34313,-2.3432 2.34313,-6.1422 -1e-5,-8.4853 -2.34314,-2.3432 -6.14216,-2.3432 -8.48529,0 z"
         style="color:#000000;enable-background:accumulate"
         inkscape:connector-curvature="0" />
    </g>
    <g
       style="fill:#ffffff;fill-opacity:1"
       transform="matrix(0.13517525,0,0,0.13517525,180.8081,26.782191)"
       id="g4853">
      <path
         inkscape:connector-curvature="0"
         style="color:#000000;fill:#ffffff;fill-opacity:1;enable-background:accumulate"
         d="m 19.7475,1000.7285 c 6.71919,-6.7192 16.56641,-8.39395 24.85922,-5.06023 l 29.588,-29.588 12.7943,-1.34786 -2.8948,16.90423 -7.7782,0.70708 -0.7071,7.77821 -7.7782,0.70707 -0.707,7.77819 -9.7891,9.78901 c 3.3338,8.2928 1.659,18.14 -5.0602,24.8592 -8.98201,8.9821 -23.54485,8.9821 -32.52691,0 -8.98204,-8.982 -8.98204,-23.5449 -10e-6,-32.5269 z m 7.07106,16.9706 c -2.34314,2.3431 -2.34313,6.1421 2e-5,8.4853 2.34313,2.3431 6.14215,2.3431 8.48528,0 2.34313,-2.3432 2.34313,-6.1422 -1e-5,-8.4853 -2.34314,-2.3432 -6.14216,-2.3432 -8.48529,0 z"
         fill="#000000"
         stroke="none"
         marker="none"
         visibility="visible"
         display="inline"
         overflow="visible"
         id="path4851" />
    </g>
  </g>
</svg>
