<?xml version="1.0" encoding="UTF-8" standalone="no"?>
<svg
   xmlns:dc="http://purl.org/dc/elements/1.1/"
   xmlns:cc="http://creativecommons.org/ns#"
   xmlns:rdf="http://www.w3.org/1999/02/22-rdf-syntax-ns#"
   xmlns:svg="http://www.w3.org/2000/svg"
   xmlns="http://www.w3.org/2000/svg"
   xmlns:sodipodi="http://sodipodi.sourceforge.net/DTD/sodipodi-0.dtd"
   xmlns:inkscape="http://www.inkscape.org/namespaces/inkscape"
   sodipodi:docname="MultipleValuesSeparatorScenario.svg"
   inkscape:version="1.0rc1 (09960d6, 2020-04-09)"
   id="svg6212"
   version="1.1"
   viewBox="0 0 360 20"
   height="20mm"
   width="360mm">
  <defs
     id="defs6206">
    <marker
       inkscape:isstock="true"
       style="overflow:visible"
       id="marker1326"
       refX="0"
       refY="0"
       orient="auto"
       inkscape:stockid="Arrow1Send">
      <path
         inkscape:connector-curvature="0"
         transform="matrix(-0.2,0,0,-0.2,-1.2,0)"
         style="fill:#000000;fill-opacity:1;fill-rule:evenodd;stroke:#000000;stroke-width:1pt;stroke-opacity:1"
         d="M 0,0 5,-5 -12.5,0 5,5 Z"
         id="path1324" />
    </marker>
    <marker
       inkscape:stockid="Arrow1Send"
       orient="auto"
       refY="0"
       refX="0"
       id="marker1316"
       style="overflow:visible"
       inkscape:isstock="true">
      <path
         inkscape:connector-curvature="0"
         id="path1314"
         d="M 0,0 5,-5 -12.5,0 5,5 Z"
         style="fill:#000000;fill-opacity:1;fill-rule:evenodd;stroke:#000000;stroke-width:1pt;stroke-opacity:1"
         transform="matrix(-0.2,0,0,-0.2,-1.2,0)" />
    </marker>
  </defs>
  <sodipodi:namedview
     inkscape:window-maximized="1"
     inkscape:window-y="23"
     inkscape:window-x="0"
     inkscape:window-height="855"
     inkscape:window-width="1440"
     fit-margin-bottom="0"
     fit-margin-right="0"
     fit-margin-left="0"
     fit-margin-top="0"
     showgrid="false"
     inkscape:document-rotation="0"
     inkscape:current-layer="layer1"
     inkscape:document-units="mm"
     inkscape:cy="257.79528"
     inkscape:cx="766.02925"
     inkscape:zoom="0.35"
     inkscape:pageshadow="2"
     inkscape:pageopacity="0.0"
     borderopacity="1.0"
     bordercolor="#666666"
     pagecolor="#ffffff"
     id="base" />
  <metadata
     id="metadata6209">
    <rdf:RDF>
      <cc:Work
         rdf:about="">
        <dc:format>image/svg+xml</dc:format>
        <dc:type
           rdf:resource="http://purl.org/dc/dcmitype/StillImage" />
        <dc:title></dc:title>
      </cc:Work>
    </rdf:RDF>
  </metadata>
  <g
     transform="translate(96.84524,-79.958333)"
     id="layer1"
     inkscape:groupmode="layer"
     inkscape:label="Layer 1">
    <g
       transform="translate(-96.84524,79.958333)"
       id="g1284">
      <rect
         style="fill:#ff0000;fill-opacity:1;stroke:#000000;stroke-width:0.493981;stroke-linecap:square;stroke-miterlimit:4;stroke-dasharray:none;stop-color:#000000"
         id="rect1274"
         width="19.50602"
         height="19.50602"
         x="0.24699089"
         y="0.2469908" />
      <rect
         y="0.2469908"
         x="20.24699"
         height="19.50602"
         width="19.50602"
         id="rect1276"
         style="fill:#ff0000;fill-opacity:1;stroke:#000000;stroke-width:0.493981;stroke-linecap:square;stroke-miterlimit:4;stroke-dasharray:none;stop-color:#000000" />
      <rect
         style="fill:#ff0000;fill-opacity:1;stroke:#000000;stroke-width:0.493981;stroke-linecap:square;stroke-miterlimit:4;stroke-dasharray:none;stop-color:#000000"
         id="rect1278"
         width="19.50602"
         height="19.50602"
         x="40.24699"
         y="0.2469908" />
      <rect
         y="0.2469908"
         x="60.24699"
         height="19.50602"
         width="19.50602"
         id="rect1280"
         style="fill:#ff0000;fill-opacity:1;stroke:#000000;stroke-width:0.493981;stroke-linecap:square;stroke-miterlimit:4;stroke-dasharray:none;stop-color:#000000" />
      <rect
         style="fill:#ff0000;fill-opacity:1;stroke:#000000;stroke-width:0.493981;stroke-linecap:square;stroke-miterlimit:4;stroke-dasharray:none;stop-color:#000000"
         id="rect1282"
         width="19.50602"
         height="19.50602"
         x="80.246994"
         y="0.2469908" />
    </g>
    <g
       style="fill:#c8c8c8;fill-opacity:1"
       transform="translate(33.15476,79.958333)"
       id="g1296">
      <rect
         y="0.2469908"
         x="0.24699089"
         height="19.50602"
         width="19.50602"
         id="rect1286"
         style="fill:#c8c8c8;fill-opacity:1;stroke:#000000;stroke-width:0.493981;stroke-linecap:square;stroke-miterlimit:4;stroke-dasharray:none;stop-color:#000000" />
      <rect
         style="fill:#c8c8c8;fill-opacity:1;stroke:#000000;stroke-width:0.493981;stroke-linecap:square;stroke-miterlimit:4;stroke-dasharray:none;stop-color:#000000"
         id="rect1288"
         width="19.50602"
         height="19.50602"
         x="20.24699"
         y="0.2469908" />
      <rect
         y="0.2469908"
         x="40.24699"
         height="19.50602"
         width="19.50602"
         id="rect1290"
         style="fill:#c8c8c8;fill-opacity:1;stroke:#000000;stroke-width:0.493981;stroke-linecap:square;stroke-miterlimit:4;stroke-dasharray:none;stop-color:#000000" />
      <rect
         style="fill:#c8c8c8;fill-opacity:1;stroke:#000000;stroke-width:0.493981;stroke-linecap:square;stroke-miterlimit:4;stroke-dasharray:none;stop-color:#000000"
         id="rect1292"
         width="19.50602"
         height="19.50602"
         x="60.24699"
         y="0.2469908" />
      <rect
         y="0.2469908"
         x="80.246994"
         height="19.50602"
         width="19.50602"
         id="rect1294"
         style="fill:#c8c8c8;fill-opacity:1;stroke:#000000;stroke-width:0.493981;stroke-linecap:square;stroke-miterlimit:4;stroke-dasharray:none;stop-color:#000000" />
    </g>
    <g
       id="g1308"
       transform="translate(163.15476,79.958333)"
       style="fill:#00ff00;fill-opacity:1">
      <rect
         style="fill:#00ff00;fill-opacity:1;stroke:#000000;stroke-width:0.493981;stroke-linecap:square;stroke-miterlimit:4;stroke-dasharray:none;stop-color:#000000"
         id="rect1298"
         width="19.50602"
         height="19.50602"
         x="0.24699089"
         y="0.2469908" />
      <rect
         y="0.2469908"
         x="20.24699"
         height="19.50602"
         width="19.50602"
         id="rect1300"
         style="fill:#00ff00;fill-opacity:1;stroke:#000000;stroke-width:0.493981;stroke-linecap:square;stroke-miterlimit:4;stroke-dasharray:none;stop-color:#000000" />
      <rect
         style="fill:#00ff00;fill-opacity:1;stroke:#000000;stroke-width:0.493981;stroke-linecap:square;stroke-miterlimit:4;stroke-dasharray:none;stop-color:#000000"
         id="rect1302"
         width="19.50602"
         height="19.50602"
         x="40.24699"
         y="0.2469908" />
      <rect
         y="0.2469908"
         x="60.24699"
         height="19.50602"
         width="19.50602"
         id="rect1304"
         style="fill:#00ff00;fill-opacity:1;stroke:#000000;stroke-width:0.493981;stroke-linecap:square;stroke-miterlimit:4;stroke-dasharray:none;stop-color:#000000" />
      <rect
         style="fill:#00ff00;fill-opacity:1;stroke:#000000;stroke-width:0.493981;stroke-linecap:square;stroke-miterlimit:4;stroke-dasharray:none;stop-color:#000000"
         id="rect1306"
         width="19.50602"
         height="19.50602"
         x="80.246994"
         y="0.2469908" />
    </g>
    <path
       inkscape:connector-curvature="0"
       id="path1310"
       d="M 6.4206397,89.958334 H 26.01941"
       style="fill:none;stroke:#000000;stroke-width:3;stroke-linecap:butt;stroke-linejoin:miter;stroke-miterlimit:4;stroke-dasharray:none;stroke-opacity:1;marker-end:url(#marker1326)" />
    <path
       style="fill:none;stroke:#000000;stroke-width:3;stroke-linecap:butt;stroke-linejoin:miter;stroke-miterlimit:4;stroke-dasharray:none;stroke-opacity:1;marker-end:url(#marker1316)"
       d="m 136.42076,89.958334 h 19.59877"
       id="path1312"
       inkscape:connector-curvature="0" />
    <text
       xml:space="preserve"
       style="font-size:6.35px;line-height:1.25;font-family:Kokonor;-inkscape-font-specification:Kokonor;stroke-width:0.264583"
       x="-46.702179"
       y="91.282425"
       id="text1400"><tspan
         sodipodi:role="line"
         id="tspan1398"
         x="-46.702179"
         y="91.282425"
         style="font-style:normal;font-variant:normal;font-weight:bold;font-stretch:normal;font-family:Arial;-inkscape-font-specification:'Arial Bold';text-align:center;text-anchor:middle;stroke-width:0.264583">x,y,z</tspan></text>
    <text
       id="text1404"
       y="91.282425"
       x="213.07056"
       style="font-size:6.35px;line-height:1.25;font-family:Kokonor;-inkscape-font-specification:Kokonor;stroke-width:0.264583"
       xml:space="preserve"><tspan
         style="font-style:normal;font-variant:normal;font-weight:bold;font-stretch:normal;font-family:Arial;-inkscape-font-specification:'Arial Bold';text-align:center;text-anchor:middle;stroke-width:0.264583"
         y="91.282425"
         x="213.07056"
         id="tspan1402"
         sodipodi:role="line">1,2,3</tspan></text>
    <rect
       style="fill:#ff3cdc;fill-opacity:1;stroke:#000000;stroke-width:0.528987;stroke-linecap:square;stroke-miterlimit:4;stroke-dasharray:none;stop-color:#000000"
       id="rect1406"
       width="4.4710135"
       height="4.4710135"
       x="74.948097"
       y="87.77182" />
    <rect
       y="87.77182"
       x="80.948082"
       height="4.4710135"
       width="4.4710135"
       id="rect1408"
       style="fill:#ff3cdc;fill-opacity:1;stroke:#000000;stroke-width:0.528987;stroke-linecap:square;stroke-miterlimit:4;stroke-dasharray:none;stop-color:#000000" />
    <rect
       style="fill:#ff3cdc;fill-opacity:1;stroke:#000000;stroke-width:0.528987;stroke-linecap:square;stroke-miterlimit:4;stroke-dasharray:none;stop-color:#000000"
       id="rect1410"
       width="4.4710135"
       height="4.4710135"
       x="86.948082"
       y="87.77182" />
    <g
       id="g4106"
       transform="matrix(0.13517525,0,0,0.13517525,-93.555129,-45.616617)">
      <path
         id="path4104"
         overflow="visible"
         display="inline"
         visibility="visible"
         marker="none"
         stroke="none"
         fill="#000000"
         d="m 19.7475,1000.7285 c 6.71919,-6.7192 16.56641,-8.39395 24.85922,-5.06023 l 29.588,-29.588 12.7943,-1.34786 -2.8948,16.90423 -7.7782,0.70708 -0.7071,7.77821 -7.7782,0.70707 -0.707,7.77819 -9.7891,9.78901 c 3.3338,8.2928 1.659,18.14 -5.0602,24.8592 -8.98201,8.9821 -23.54485,8.9821 -32.52691,0 -8.98204,-8.982 -8.98204,-23.5449 -10e-6,-32.5269 z m 7.07106,16.9706 c -2.34314,2.3431 -2.34313,6.1421 2e-5,8.4853 2.34313,2.3431 6.14215,2.3431 8.48528,0 2.34313,-2.3432 2.34313,-6.1422 -1e-5,-8.4853 -2.34314,-2.3432 -6.14216,-2.3432 -8.48529,0 z"
         style="color:#000000;enable-background:accumulate"
         inkscape:connector-curvature="0" />
    </g>
    <g
       id="g4122"
       transform="matrix(0.13517525,0,0,0.13517525,166.445,-45.616617)">
      <path
         id="path4120"
         overflow="visible"
         display="inline"
         visibility="visible"
         marker="none"
         stroke="none"
         fill="#000000"
         d="m 19.7475,1000.7285 c 6.71919,-6.7192 16.56641,-8.39395 24.85922,-5.06023 l 29.588,-29.588 12.7943,-1.34786 -2.8948,16.90423 -7.7782,0.70708 -0.7071,7.77821 -7.7782,0.70707 -0.707,7.77819 -9.7891,9.78901 c 3.3338,8.2928 1.659,18.14 -5.0602,24.8592 -8.98201,8.9821 -23.54485,8.9821 -32.52691,0 -8.98204,-8.982 -8.98204,-23.5449 -10e-6,-32.5269 z m 7.07106,16.9706 c -2.34314,2.3431 -2.34313,6.1421 2e-5,8.4853 2.34313,2.3431 6.14215,2.3431 8.48528,0 2.34313,-2.3432 2.34313,-6.1422 -1e-5,-8.4853 -2.34314,-2.3432 -6.14216,-2.3432 -8.48529,0 z"
         style="color:#000000;enable-background:accumulate"
         inkscape:connector-curvature="0" />
    </g>
    <g
       transform="matrix(0.13517525,0,0,0.13517525,36.445,-45.616617)"
       id="g4126">
      <path
         inkscape:connector-curvature="0"
         style="color:#000000;enable-background:accumulate"
         d="m 19.7475,1000.7285 c 6.71919,-6.7192 16.56641,-8.39395 24.85922,-5.06023 l 29.588,-29.588 12.7943,-1.34786 -2.8948,16.90423 -7.7782,0.70708 -0.7071,7.77821 -7.7782,0.70707 -0.707,7.77819 -9.7891,9.78901 c 3.3338,8.2928 1.659,18.14 -5.0602,24.8592 -8.98201,8.9821 -23.54485,8.9821 -32.52691,0 -8.98204,-8.982 -8.98204,-23.5449 -10e-6,-32.5269 z m 7.07106,16.9706 c -2.34314,2.3431 -2.34313,6.1421 2e-5,8.4853 2.34313,2.3431 6.14215,2.3431 8.48528,0 2.34313,-2.3432 2.34313,-6.1422 -1e-5,-8.4853 -2.34314,-2.3432 -6.14216,-2.3432 -8.48529,0 z"
         fill="#000000"
         stroke="none"
         marker="none"
         visibility="visible"
         display="inline"
         overflow="visible"
         id="path4124" />
    </g>
  </g>
</svg>
