<?xml version="1.0" encoding="UTF-8" standalone="no"?>
<svg
   xmlns:dc="http://purl.org/dc/elements/1.1/"
   xmlns:cc="http://creativecommons.org/ns#"
   xmlns:rdf="http://www.w3.org/1999/02/22-rdf-syntax-ns#"
   xmlns:svg="http://www.w3.org/2000/svg"
   xmlns="http://www.w3.org/2000/svg"
   xmlns:xlink="http://www.w3.org/1999/xlink"
   xmlns:sodipodi="http://sodipodi.sourceforge.net/DTD/sodipodi-0.dtd"
   xmlns:inkscape="http://www.inkscape.org/namespaces/inkscape"
   sodipodi:docname="SubstructureFieldsWithChildRecords.svg"
   inkscape:version="1.0rc1 (09960d6, 2020-04-09)"
   id="svg9973"
   version="1.1"
   viewBox="0 0 391.22357 56.094971"
   height="56.094971mm"
   width="391.22357mm">
  <defs
     id="defs9967">
    <pattern
       inkscape:collect="always"
       xlink:href="#pattern1902"
       id="pattern4361"
       patternTransform="matrix(2.3726795,-1.8026757,5.8674405,7.722717,0,0)" />
    <pattern
       id="pattern1902"
       inkscape:isstock="true"
       inkscape:stockid="Stripes 1:1"
       patternTransform="translate(0,0) scale(10,10)"
       height="1"
       width="2"
       patternUnits="userSpaceOnUse"
       inkscape:collect="always">
      <rect
         id="rect4388"
         height="2"
         width="1"
         y="-0.5"
         x="0"
         style="fill:#c8c8c8;stroke:none" />
    </pattern>
    <pattern
       inkscape:collect="always"
       xlink:href="#pattern4361"
       id="pattern4590"
       patternTransform="matrix(2.3726795,-1.8026757,5.8674405,7.722717,0,20.000009)" />
    <pattern
       inkscape:collect="always"
       xlink:href="#pattern1902"
       id="pattern9903"
       patternTransform="matrix(2.3726795,-1.8026757,5.8674405,7.722717,0,0)" />
    <marker
       inkscape:stockid="Arrow1Send"
       orient="auto"
       refY="0"
       refX="0"
       id="marker5111"
       style="overflow:visible"
       inkscape:isstock="true">
      <path
         inkscape:connector-curvature="0"
         id="path5109"
         d="M 0,0 5,-5 -12.5,0 5,5 Z"
         style="fill:#000000;fill-opacity:1;fill-rule:evenodd;stroke:#000000;stroke-width:1pt;stroke-opacity:1"
         transform="matrix(-0.2,0,0,-0.2,-1.2,0)" />
    </marker>
    <marker
       inkscape:isstock="true"
       style="overflow:visible"
       id="marker5101"
       refX="0"
       refY="0"
       orient="auto"
       inkscape:stockid="Arrow1Send">
      <path
         inkscape:connector-curvature="0"
         transform="matrix(-0.2,0,0,-0.2,-1.2,0)"
         style="fill:#000000;fill-opacity:1;fill-rule:evenodd;stroke:#000000;stroke-width:1pt;stroke-opacity:1"
         d="M 0,0 5,-5 -12.5,0 5,5 Z"
         id="path5099" />
    </marker>
    <marker
       inkscape:isstock="true"
       style="overflow:visible"
       id="marker5290"
       refX="0"
       refY="0"
       orient="auto"
       inkscape:stockid="Arrow1Send">
      <path
         inkscape:connector-curvature="0"
         transform="matrix(-0.2,0,0,-0.2,-1.2,0)"
         style="fill:#000000;fill-opacity:1;fill-rule:evenodd;stroke:#000000;stroke-width:1pt;stroke-opacity:1"
         d="M 0,0 5,-5 -12.5,0 5,5 Z"
         id="path5288" />
    </marker>
  </defs>
  <sodipodi:namedview
     inkscape:window-maximized="0"
     inkscape:window-y="23"
     inkscape:window-x="0"
     inkscape:window-height="855"
     inkscape:window-width="1252"
     fit-margin-bottom="0"
     fit-margin-right="0"
     fit-margin-left="0"
     fit-margin-top="0"
     showgrid="false"
     inkscape:document-rotation="0"
     inkscape:current-layer="layer1"
     inkscape:document-units="mm"
     inkscape:cy="-293.99378"
     inkscape:cx="93.605858"
     inkscape:zoom="0.35"
     inkscape:pageshadow="2"
     inkscape:pageopacity="0.0"
     borderopacity="1.0"
     bordercolor="#666666"
     pagecolor="#ffffff"
     id="base" />
  <metadata
     id="metadata9970">
    <rdf:RDF>
      <cc:Work
         rdf:about="">
        <dc:format>image/svg+xml</dc:format>
        <dc:type
           rdf:resource="http://purl.org/dc/dcmitype/StillImage" />
        <dc:title></dc:title>
      </cc:Work>
    </rdf:RDF>
  </metadata>
  <g
     transform="translate(-81.066783,-225.95252)"
     id="layer1"
     inkscape:groupmode="layer"
     inkscape:label="Layer 1">
    <g
       id="g5035"
       transform="translate(211.06678,225.95253)"
       style="fill:#c8c8c8;fill-opacity:1">
      <rect
         style="fill:#c8c8c8;fill-opacity:1;stroke:#000000;stroke-width:0.493981;stroke-linecap:square;stroke-miterlimit:4;stroke-dasharray:none;stop-color:#000000"
         id="rect5011"
         width="19.50602"
         height="19.50602"
         x="0.24699089"
         y="0.2469908" />
      <rect
         y="0.2469908"
         x="20.24699"
         height="19.50602"
         width="19.50602"
         id="rect5013"
         style="fill:#c8c8c8;fill-opacity:1;stroke:#000000;stroke-width:0.493981;stroke-linecap:square;stroke-miterlimit:4;stroke-dasharray:none;stop-color:#000000" />
      <rect
         style="fill:#c8c8c8;fill-opacity:1;stroke:#000000;stroke-width:0.493981;stroke-linecap:square;stroke-miterlimit:4;stroke-dasharray:none;stop-color:#000000"
         id="rect5015"
         width="19.50602"
         height="19.50602"
         x="40.24699"
         y="0.2469908" />
      <rect
         y="0.2469908"
         x="60.24699"
         height="19.50602"
         width="19.50602"
         id="rect5017"
         style="fill:url(#pattern4361);fill-opacity:1;stroke:#000000;stroke-width:0.494;stroke-linecap:square;stroke-miterlimit:4;stroke-dasharray:none;stop-color:#000000" />
      <rect
         style="fill:#c8c8c8;fill-opacity:1;stroke:#000000;stroke-width:0.493981;stroke-linecap:square;stroke-miterlimit:4;stroke-dasharray:none;stop-color:#000000"
         id="rect5019"
         width="19.50602"
         height="19.50602"
         x="100.24699"
         y="0.2469908" />
      <rect
         y="0.2469908"
         x="80.246994"
         height="19.50602"
         width="19.50602"
         id="rect5021"
         style="fill:#fff000;fill-opacity:1;stroke:#000000;stroke-width:0.494;stroke-linecap:square;stroke-miterlimit:4;stroke-dasharray:none;stop-color:#000000" />
      <rect
         y="20.247"
         x="0.24699089"
         height="19.50602"
         width="19.50602"
         id="rect5023"
         style="fill:#c8c8c8;fill-opacity:1;stroke:#000000;stroke-width:0.493981;stroke-linecap:square;stroke-miterlimit:4;stroke-dasharray:none;stop-color:#000000" />
      <rect
         style="fill:#c8c8c8;fill-opacity:1;stroke:#000000;stroke-width:0.493981;stroke-linecap:square;stroke-miterlimit:4;stroke-dasharray:none;stop-color:#000000"
         id="rect5025"
         width="19.50602"
         height="19.50602"
         x="20.24699"
         y="20.247" />
      <rect
         y="20.247"
         x="40.24699"
         height="19.50602"
         width="19.50602"
         id="rect5027"
         style="fill:#c8c8c8;fill-opacity:1;stroke:#000000;stroke-width:0.493981;stroke-linecap:square;stroke-miterlimit:4;stroke-dasharray:none;stop-color:#000000" />
      <rect
         y="20.247"
         x="100.24699"
         height="19.50602"
         width="19.50602"
         id="rect5029"
         style="fill:#c8c8c8;fill-opacity:1;stroke:#000000;stroke-width:0.493981;stroke-linecap:square;stroke-miterlimit:4;stroke-dasharray:none;stop-color:#000000" />
      <rect
         style="fill:#fff000;fill-opacity:1;stroke:#000000;stroke-width:0.494;stroke-linecap:square;stroke-miterlimit:4;stroke-dasharray:none;stop-color:#000000"
         id="rect5031"
         width="19.50602"
         height="19.50602"
         x="80.246994"
         y="20.247" />
      <rect
         style="fill:url(#pattern4590);fill-opacity:1;stroke:#000000;stroke-width:0.494;stroke-linecap:square;stroke-miterlimit:4;stroke-dasharray:none;stop-color:#000000"
         id="rect5033"
         width="19.50602"
         height="19.50602"
         x="60.24699"
         y="20.247" />
    </g>
    <g
       transform="translate(81.066783,225.95253)"
       id="g5047">
      <rect
         y="0.2469908"
         x="0.24699089"
         height="19.50602"
         width="19.50602"
         id="rect5037"
         style="fill:#ff0000;fill-opacity:1;stroke:#000000;stroke-width:0.493981;stroke-linecap:square;stroke-miterlimit:4;stroke-dasharray:none;stop-color:#000000" />
      <rect
         style="fill:#ff0000;fill-opacity:1;stroke:#000000;stroke-width:0.493981;stroke-linecap:square;stroke-miterlimit:4;stroke-dasharray:none;stop-color:#000000"
         id="rect5039"
         width="19.50602"
         height="19.50602"
         x="20.24699"
         y="0.2469908" />
      <rect
         y="0.2469908"
         x="40.24699"
         height="19.50602"
         width="19.50602"
         id="rect5041"
         style="fill:#ff0000;fill-opacity:1;stroke:#000000;stroke-width:0.493981;stroke-linecap:square;stroke-miterlimit:4;stroke-dasharray:none;stop-color:#000000" />
      <rect
         style="fill:#ff0000;fill-opacity:1;stroke:#000000;stroke-width:0.493981;stroke-linecap:square;stroke-miterlimit:4;stroke-dasharray:none;stop-color:#000000"
         id="rect5043"
         width="19.50602"
         height="19.50602"
         x="60.24699"
         y="0.2469908" />
      <rect
         y="0.2469908"
         x="80.246994"
         height="19.50602"
         width="19.50602"
         id="rect5045"
         style="fill:#ff0000;fill-opacity:1;stroke:#000000;stroke-width:0.493981;stroke-linecap:square;stroke-miterlimit:4;stroke-dasharray:none;stop-color:#000000" />
    </g>
    <g
       id="g5057"
       transform="translate(76.745707,-15.288488)">
      <rect
         y="246.51183"
         x="69.591927"
         height="4.4582205"
         width="4.4582205"
         id="rect5049"
         style="fill:#fff000;fill-opacity:1;stroke:#000000;stroke-width:0.542;stroke-linecap:square;stroke-miterlimit:4;stroke-dasharray:none;stroke-opacity:1;stop-color:#000000" />
      <rect
         style="fill:#fff000;fill-opacity:1;stroke:#000000;stroke-width:0.542;stroke-linecap:square;stroke-miterlimit:4;stroke-dasharray:none;stroke-opacity:1;stop-color:#000000"
         id="rect5051"
         width="4.4582205"
         height="4.4582205"
         x="74.592003"
         y="246.51183" />
      <rect
         style="fill:#fff000;fill-opacity:1;stroke:#000000;stroke-width:0.542;stroke-linecap:square;stroke-miterlimit:4;stroke-dasharray:none;stroke-opacity:1;stop-color:#000000"
         id="rect5053"
         width="4.4582205"
         height="4.4582205"
         x="69.591927"
         y="251.51199" />
      <rect
         y="251.51199"
         x="74.592003"
         height="4.4582205"
         width="4.4582205"
         id="rect5055"
         style="fill:#fff000;fill-opacity:1;stroke:#000000;stroke-width:0.542;stroke-linecap:square;stroke-miterlimit:4;stroke-dasharray:none;stroke-opacity:1;stop-color:#000000" />
    </g>
    <rect
       style="fill:#ff3cdc;fill-opacity:1;stroke:#000000;stroke-width:0.528987;stroke-linecap:square;stroke-miterlimit:4;stroke-dasharray:none;stop-color:#000000"
       id="rect5059"
       width="4.4710135"
       height="4.4710135"
       x="278.83127"
       y="233.71703" />
    <rect
       style="fill:#00ff00;fill-opacity:1;stroke:#000000;stroke-width:0.49398;stroke-linecap:square;stroke-miterlimit:4;stroke-dasharray:none;stop-color:#000000"
       id="rect5061"
       width="19.50602"
       height="19.50602"
       x="361.31375"
       y="226.19954" />
    <rect
       y="226.19954"
       x="381.31375"
       height="19.50602"
       width="19.50602"
       id="rect5063"
       style="fill:#00ff00;fill-opacity:1;stroke:#000000;stroke-width:0.49398;stroke-linecap:square;stroke-miterlimit:4;stroke-dasharray:none;stop-color:#000000" />
    <rect
       style="fill:#00ff00;fill-opacity:1;stroke:#000000;stroke-width:0.49398;stroke-linecap:square;stroke-miterlimit:4;stroke-dasharray:none;stop-color:#000000"
       id="rect5065"
       width="19.50602"
       height="19.50602"
       x="401.31375"
       y="226.19954" />
    <rect
       y="226.19954"
       x="421.31378"
       height="19.50602"
       width="19.50602"
       id="rect5067"
       style="fill:#00ff00;fill-opacity:1;stroke:#000000;stroke-width:0.49398;stroke-linecap:square;stroke-miterlimit:4;stroke-dasharray:none;stop-color:#000000" />
    <rect
       style="fill:#00ff00;fill-opacity:1;stroke:#000000;stroke-width:0.49398;stroke-linecap:square;stroke-miterlimit:4;stroke-dasharray:none;stop-color:#000000"
       id="rect5069"
       width="19.50602"
       height="19.50602"
       x="441.31378"
       y="226.19954" />
    <rect
       y="252.29576"
       x="442.53802"
       height="14.504281"
       width="14.504281"
       id="rect5259"
       style="fill:#00ff00;fill-opacity:1;stroke:#000000;stroke-width:0.495721;stroke-linecap:square;stroke-miterlimit:4;stroke-dasharray:none;stop-color:#000000" />
    <rect
       style="fill:#00ff00;fill-opacity:1;stroke:#000000;stroke-width:0.495721;stroke-linecap:square;stroke-miterlimit:4;stroke-dasharray:none;stop-color:#000000"
       id="rect5263"
       width="14.504281"
       height="14.504281"
       x="457.53821"
       y="252.29576" />
    <rect
       style="fill:#00ff00;fill-opacity:1;stroke:#000000;stroke-width:0.495721;stroke-linecap:square;stroke-miterlimit:4;stroke-dasharray:none;stop-color:#000000"
       id="rect5265"
       width="14.504281"
       height="14.504281"
       x="442.53802"
       y="267.29535" />
    <rect
       y="267.29535"
       x="457.53821"
       height="14.504281"
       width="14.504281"
       id="rect5267"
       style="fill:#00ff00;fill-opacity:1;stroke:#000000;stroke-width:0.495721;stroke-linecap:square;stroke-miterlimit:4;stroke-dasharray:none;stop-color:#000000" />
    <path
       style="fill:none;stroke:#000000;stroke-width:3;stroke-linecap:butt;stroke-linejoin:miter;stroke-miterlimit:4;stroke-dasharray:none;stroke-opacity:1;marker-end:url(#marker5111)"
       d="m 184.33266,235.95254 h 19.59877"
       id="path5073"
       inkscape:connector-curvature="0" />
    <path
       inkscape:connector-curvature="0"
       id="path5075"
       d="m 334.33278,235.95254 h 19.59877"
       style="fill:none;stroke:#000000;stroke-width:3;stroke-linecap:butt;stroke-linejoin:miter;stroke-miterlimit:4;stroke-dasharray:none;stroke-opacity:1;marker-end:url(#marker5101)" />
    <g
       transform="matrix(0.13517525,0,0,0.13517525,84.356894,100.37763)"
       id="g5079">
      <path
         inkscape:connector-curvature="0"
         style="color:#000000;enable-background:accumulate"
         d="m 19.7475,1000.7285 c 6.71919,-6.7192 16.56641,-8.39395 24.85922,-5.06023 l 29.588,-29.588 12.7943,-1.34786 -2.8948,16.90423 -7.7782,0.70708 -0.7071,7.77821 -7.7782,0.70707 -0.707,7.77819 -9.7891,9.78901 c 3.3338,8.2928 1.659,18.14 -5.0602,24.8592 -8.98201,8.9821 -23.54485,8.9821 -32.52691,0 -8.98204,-8.982 -8.98204,-23.5449 -10e-6,-32.5269 z m 7.07106,16.9706 c -2.34314,2.3431 -2.34313,6.1421 2e-5,8.4853 2.34313,2.3431 6.14215,2.3431 8.48528,0 2.34313,-2.3432 2.34313,-6.1422 -1e-5,-8.4853 -2.34314,-2.3432 -6.14216,-2.3432 -8.48529,0 z"
         fill="#000000"
         stroke="none"
         marker="none"
         visibility="visible"
         display="inline"
         overflow="visible"
         id="path5077" />
    </g>
    <g
       id="g5083"
       transform="matrix(0.13517525,0,0,0.13517525,214.35702,100.37763)">
      <path
         id="path5081"
         overflow="visible"
         display="inline"
         visibility="visible"
         marker="none"
         stroke="none"
         fill="#000000"
         d="m 19.7475,1000.7285 c 6.71919,-6.7192 16.56641,-8.39395 24.85922,-5.06023 l 29.588,-29.588 12.7943,-1.34786 -2.8948,16.90423 -7.7782,0.70708 -0.7071,7.77821 -7.7782,0.70707 -0.707,7.77819 -9.7891,9.78901 c 3.3338,8.2928 1.659,18.14 -5.0602,24.8592 -8.98201,8.9821 -23.54485,8.9821 -32.52691,0 -8.98204,-8.982 -8.98204,-23.5449 -10e-6,-32.5269 z m 7.07106,16.9706 c -2.34314,2.3431 -2.34313,6.1421 2e-5,8.4853 2.34313,2.3431 6.14215,2.3431 8.48528,0 2.34313,-2.3432 2.34313,-6.1422 -1e-5,-8.4853 -2.34314,-2.3432 -6.14216,-2.3432 -8.48529,0 z"
         style="color:#000000;enable-background:accumulate"
         inkscape:connector-curvature="0" />
    </g>
    <g
       transform="matrix(0.13517525,0,0,0.13517525,364.35703,100.37763)"
       id="g5087">
      <path
         inkscape:connector-curvature="0"
         style="color:#000000;enable-background:accumulate"
         d="m 19.7475,1000.7285 c 6.71919,-6.7192 16.56641,-8.39395 24.85922,-5.06023 l 29.588,-29.588 12.7943,-1.34786 -2.8948,16.90423 -7.7782,0.70708 -0.7071,7.77821 -7.7782,0.70707 -0.707,7.77819 -9.7891,9.78901 c 3.3338,8.2928 1.659,18.14 -5.0602,24.8592 -8.98201,8.9821 -23.54485,8.9821 -32.52691,0 -8.98204,-8.982 -8.98204,-23.5449 -10e-6,-32.5269 z m 7.07106,16.9706 c -2.34314,2.3431 -2.34313,6.1421 2e-5,8.4853 2.34313,2.3431 6.14215,2.3431 8.48528,0 2.34313,-2.3432 2.34313,-6.1422 -1e-5,-8.4853 -2.34314,-2.3432 -6.14216,-2.3432 -8.48529,0 z"
         fill="#000000"
         stroke="none"
         marker="none"
         visibility="visible"
         display="inline"
         overflow="visible"
         id="path5085" />
    </g>
    <g
       transform="matrix(0.13517525,0,0,0.13517525,214.35702,120.37765)"
       id="g5091">
      <path
         inkscape:connector-curvature="0"
         style="color:#000000;enable-background:accumulate"
         d="m 19.7475,1000.7285 c 6.71919,-6.7192 16.56641,-8.39395 24.85922,-5.06023 l 29.588,-29.588 12.7943,-1.34786 -2.8948,16.90423 -7.7782,0.70708 -0.7071,7.77821 -7.7782,0.70707 -0.707,7.77819 -9.7891,9.78901 c 3.3338,8.2928 1.659,18.14 -5.0602,24.8592 -8.98201,8.9821 -23.54485,8.9821 -32.52691,0 -8.98204,-8.982 -8.98204,-23.5449 -10e-6,-32.5269 z m 7.07106,16.9706 c -2.34314,2.3431 -2.34313,6.1421 2e-5,8.4853 2.34313,2.3431 6.14215,2.3431 8.48528,0 2.34313,-2.3432 2.34313,-6.1422 -1e-5,-8.4853 -2.34314,-2.3432 -6.14216,-2.3432 -8.48529,0 z"
         fill="#000000"
         stroke="none"
         marker="none"
         visibility="visible"
         display="inline"
         overflow="visible"
         id="path5089" />
    </g>
    <rect
       y="253.71703"
       x="278.83127"
       height="4.4710135"
       width="4.4710135"
       id="rect5093"
       style="fill:#ff3cdc;fill-opacity:1;stroke:#000000;stroke-width:0.528987;stroke-linecap:square;stroke-miterlimit:4;stroke-dasharray:none;stop-color:#000000" />
    <text
       xml:space="preserve"
       style="font-size:6.35px;line-height:1.25;font-family:Kokonor;-inkscape-font-specification:Kokonor;stroke-width:0.264583"
       x="430.98273"
       y="237.2766"
       id="text5097"><tspan
         sodipodi:role="line"
         id="tspan5095"
         x="430.98273"
         y="237.2766"
         style="font-style:normal;font-variant:normal;font-weight:bold;font-stretch:normal;font-family:Arial;-inkscape-font-specification:'Arial Bold';text-align:center;text-anchor:middle;stroke-width:0.264583">1,2</tspan></text>
    <text
       id="text5271"
       y="261.323"
       x="449.70026"
       style="font-size:6.35px;line-height:1.25;font-family:Kokonor;-inkscape-font-specification:Kokonor;stroke-width:0.264583"
       xml:space="preserve"><tspan
         style="font-style:normal;font-variant:normal;font-weight:bold;font-stretch:normal;font-family:Arial;-inkscape-font-specification:'Arial Bold';text-align:center;text-anchor:middle;stroke-width:0.264583"
         y="261.323"
         x="449.70026"
         id="tspan5269"
         sodipodi:role="line">1</tspan></text>
    <text
       xml:space="preserve"
       style="font-size:6.35071px;line-height:1.25;font-family:Kokonor;-inkscape-font-specification:Kokonor;stroke-width:0.264612"
       x="449.70041"
       y="276.32309"
       id="text5284"><tspan
         sodipodi:role="line"
         id="tspan5282"
         x="449.70041"
         y="276.32309"
         style="font-style:normal;font-variant:normal;font-weight:bold;font-stretch:normal;font-family:Arial;-inkscape-font-specification:'Arial Bold';text-align:center;text-anchor:middle;stroke-width:0.264612">2</tspan></text>
    <path
       style="fill:none;stroke:#000000;stroke-width:2;stroke-linecap:butt;stroke-linejoin:miter;stroke-miterlimit:4;stroke-dasharray:none;stroke-opacity:1;marker-end:url(#marker5290)"
       d="m 428.20019,248.1733 v 26.45833 h 8.99584"
       id="path5286"
       inkscape:connector-curvature="0" />
  </g>
</svg>
