<?xml version="1.0" encoding="UTF-8" standalone="no"?>
<svg
   xmlns:dc="http://purl.org/dc/elements/1.1/"
   xmlns:cc="http://creativecommons.org/ns#"
   xmlns:rdf="http://www.w3.org/1999/02/22-rdf-syntax-ns#"
   xmlns:svg="http://www.w3.org/2000/svg"
   xmlns="http://www.w3.org/2000/svg"
   xmlns:xlink="http://www.w3.org/1999/xlink"
   xmlns:sodipodi="http://sodipodi.sourceforge.net/DTD/sodipodi-0.dtd"
   xmlns:inkscape="http://www.inkscape.org/namespaces/inkscape"
   sodipodi:docname="SubstructureFieldsWithMultipleRows.svg"
   inkscape:version="1.0rc1 (09960d6, 2020-04-09)"
   id="svg9126"
   version="1.1"
   viewBox="0 0 380 40.000027"
   height="40.000027mm"
   width="380mm">
  <defs
     id="defs9120">
    <pattern
       inkscape:collect="always"
       xlink:href="#pattern1902"
       id="pattern4361"
       patternTransform="matrix(2.3726795,-1.8026757,5.8674405,7.722717,0,0)" />
    <pattern
       id="pattern1902"
       inkscape:isstock="true"
       inkscape:stockid="Stripes 1:1"
       patternTransform="translate(0,0) scale(10,10)"
       height="1"
       width="2"
       patternUnits="userSpaceOnUse"
       inkscape:collect="always">
      <rect
         id="rect4388"
         height="2"
         width="1"
         y="-0.5"
         x="0"
         style="fill:#c8c8c8;stroke:none" />
    </pattern>
    <pattern
       inkscape:collect="always"
       xlink:href="#pattern4361"
       id="pattern4590"
       patternTransform="matrix(2.3726795,-1.8026757,5.8674405,7.722717,0,20.000009)" />
    <pattern
       inkscape:collect="always"
       xlink:href="#pattern1902"
       id="pattern9066"
       patternTransform="matrix(2.3726795,-1.8026757,5.8674405,7.722717,0,0)" />
    <marker
       inkscape:isstock="true"
       style="overflow:visible"
       id="marker4204"
       refX="0"
       refY="0"
       orient="auto"
       inkscape:stockid="Arrow1Send"
       inkscape:collect="always">
      <path
         inkscape:connector-curvature="0"
         transform="matrix(-0.2,0,0,-0.2,-1.2,0)"
         style="fill:#000000;fill-opacity:1;fill-rule:evenodd;stroke:#000000;stroke-width:1pt;stroke-opacity:1"
         d="M 0,0 5,-5 -12.5,0 5,5 Z"
         id="path4202" />
    </marker>
    <marker
       inkscape:stockid="Arrow1Send"
       orient="auto"
       refY="0"
       refX="0"
       id="marker4194"
       style="overflow:visible"
       inkscape:isstock="true"
       inkscape:collect="always">
      <path
         inkscape:connector-curvature="0"
         id="path4192"
         d="M 0,0 5,-5 -12.5,0 5,5 Z"
         style="fill:#000000;fill-opacity:1;fill-rule:evenodd;stroke:#000000;stroke-width:1pt;stroke-opacity:1"
         transform="matrix(-0.2,0,0,-0.2,-1.2,0)" />
    </marker>
  </defs>
  <sodipodi:namedview
     inkscape:window-maximized="0"
     inkscape:window-y="23"
     inkscape:window-x="0"
     inkscape:window-height="855"
     inkscape:window-width="1252"
     fit-margin-bottom="0"
     fit-margin-right="0"
     fit-margin-left="0"
     fit-margin-top="0"
     showgrid="false"
     inkscape:document-rotation="0"
     inkscape:current-layer="layer1"
     inkscape:document-units="mm"
     inkscape:cy="-395.83795"
     inkscape:cx="89.538814"
     inkscape:zoom="0.35"
     inkscape:pageshadow="2"
     inkscape:pageopacity="0.0"
     borderopacity="1.0"
     bordercolor="#666666"
     pagecolor="#ffffff"
     id="base" />
  <metadata
     id="metadata9123">
    <rdf:RDF>
      <cc:Work
         rdf:about="">
        <dc:format>image/svg+xml</dc:format>
        <dc:type
           rdf:resource="http://purl.org/dc/dcmitype/StillImage" />
        <dc:title></dc:title>
      </cc:Work>
    </rdf:RDF>
  </metadata>
  <g
     transform="translate(-82.142855,-252.89879)"
     id="layer1"
     inkscape:groupmode="layer"
     inkscape:label="Layer 1">
    <g
       style="fill:#c8c8c8;fill-opacity:1"
       transform="translate(212.14285,252.8988)"
       id="g4162">
      <rect
         y="0.2469908"
         x="0.24699089"
         height="19.50602"
         width="19.50602"
         id="rect4152"
         style="fill:#c8c8c8;fill-opacity:1;stroke:#000000;stroke-width:0.493981;stroke-linecap:square;stroke-miterlimit:4;stroke-dasharray:none;stop-color:#000000" />
      <rect
         style="fill:#c8c8c8;fill-opacity:1;stroke:#000000;stroke-width:0.493981;stroke-linecap:square;stroke-miterlimit:4;stroke-dasharray:none;stop-color:#000000"
         id="rect4154"
         width="19.50602"
         height="19.50602"
         x="20.24699"
         y="0.2469908" />
      <rect
         y="0.2469908"
         x="40.24699"
         height="19.50602"
         width="19.50602"
         id="rect4156"
         style="fill:#c8c8c8;fill-opacity:1;stroke:#000000;stroke-width:0.493981;stroke-linecap:square;stroke-miterlimit:4;stroke-dasharray:none;stop-color:#000000" />
      <rect
         style="fill:url(#pattern4361);fill-opacity:1;stroke:#000000;stroke-width:0.494;stroke-linecap:square;stroke-miterlimit:4;stroke-dasharray:none;stop-color:#000000"
         id="rect4158"
         width="19.50602"
         height="19.50602"
         x="60.24699"
         y="0.2469908" />
      <rect
         y="0.2469908"
         x="100.24699"
         height="19.50602"
         width="19.50602"
         id="rect4160"
         style="fill:#c8c8c8;fill-opacity:1;stroke:#000000;stroke-width:0.493981;stroke-linecap:square;stroke-miterlimit:4;stroke-dasharray:none;stop-color:#000000" />
      <rect
         style="fill:#fff000;fill-opacity:1;stroke:#000000;stroke-width:0.494;stroke-linecap:square;stroke-miterlimit:4;stroke-dasharray:none;stop-color:#000000"
         id="rect4339"
         width="19.50602"
         height="19.50602"
         x="80.246994"
         y="0.2469908" />
      <rect
         style="fill:#c8c8c8;fill-opacity:1;stroke:#000000;stroke-width:0.493981;stroke-linecap:square;stroke-miterlimit:4;stroke-dasharray:none;stop-color:#000000"
         id="rect4341"
         width="19.50602"
         height="19.50602"
         x="0.24699089"
         y="20.247" />
      <rect
         y="20.247"
         x="20.24699"
         height="19.50602"
         width="19.50602"
         id="rect4343"
         style="fill:#c8c8c8;fill-opacity:1;stroke:#000000;stroke-width:0.493981;stroke-linecap:square;stroke-miterlimit:4;stroke-dasharray:none;stop-color:#000000" />
      <rect
         style="fill:#c8c8c8;fill-opacity:1;stroke:#000000;stroke-width:0.493981;stroke-linecap:square;stroke-miterlimit:4;stroke-dasharray:none;stop-color:#000000"
         id="rect4345"
         width="19.50602"
         height="19.50602"
         x="40.24699"
         y="20.247" />
      <rect
         style="fill:#c8c8c8;fill-opacity:1;stroke:#000000;stroke-width:0.493981;stroke-linecap:square;stroke-miterlimit:4;stroke-dasharray:none;stop-color:#000000"
         id="rect4349"
         width="19.50602"
         height="19.50602"
         x="100.24699"
         y="20.247" />
      <rect
         y="20.247"
         x="80.246994"
         height="19.50602"
         width="19.50602"
         id="rect4351"
         style="fill:#fff000;fill-opacity:1;stroke:#000000;stroke-width:0.494;stroke-linecap:square;stroke-miterlimit:4;stroke-dasharray:none;stop-color:#000000" />
      <rect
         y="20.247"
         x="60.24699"
         height="19.50602"
         width="19.50602"
         id="rect4588"
         style="fill:url(#pattern4590);fill-opacity:1;stroke:#000000;stroke-width:0.494;stroke-linecap:square;stroke-miterlimit:4;stroke-dasharray:none;stop-color:#000000" />
    </g>
    <g
       transform="translate(82.142855,252.8988)"
       id="g4150">
      <rect
         style="fill:#ff0000;fill-opacity:1;stroke:#000000;stroke-width:0.493981;stroke-linecap:square;stroke-miterlimit:4;stroke-dasharray:none;stop-color:#000000"
         id="rect4140"
         width="19.50602"
         height="19.50602"
         x="0.24699089"
         y="0.2469908" />
      <rect
         y="0.2469908"
         x="20.24699"
         height="19.50602"
         width="19.50602"
         id="rect4142"
         style="fill:#ff0000;fill-opacity:1;stroke:#000000;stroke-width:0.493981;stroke-linecap:square;stroke-miterlimit:4;stroke-dasharray:none;stop-color:#000000" />
      <rect
         style="fill:#ff0000;fill-opacity:1;stroke:#000000;stroke-width:0.493981;stroke-linecap:square;stroke-miterlimit:4;stroke-dasharray:none;stop-color:#000000"
         id="rect4144"
         width="19.50602"
         height="19.50602"
         x="40.24699"
         y="0.2469908" />
      <rect
         y="0.2469908"
         x="60.24699"
         height="19.50602"
         width="19.50602"
         id="rect4146"
         style="fill:#ff0000;fill-opacity:1;stroke:#000000;stroke-width:0.493981;stroke-linecap:square;stroke-miterlimit:4;stroke-dasharray:none;stop-color:#000000" />
      <rect
         style="fill:#ff0000;fill-opacity:1;stroke:#000000;stroke-width:0.493981;stroke-linecap:square;stroke-miterlimit:4;stroke-dasharray:none;stop-color:#000000"
         id="rect4148"
         width="19.50602"
         height="19.50602"
         x="80.246994"
         y="0.2469908" />
    </g>
    <g
       transform="translate(77.82178,11.657784)"
       id="g4320">
      <rect
         style="fill:#fff000;fill-opacity:1;stroke:#000000;stroke-width:0.542;stroke-linecap:square;stroke-miterlimit:4;stroke-dasharray:none;stroke-opacity:1;stop-color:#000000"
         id="rect4308"
         width="4.4582205"
         height="4.4582205"
         x="69.591927"
         y="246.51183" />
      <rect
         y="246.51183"
         x="74.592003"
         height="4.4582205"
         width="4.4582205"
         id="rect4310"
         style="fill:#fff000;fill-opacity:1;stroke:#000000;stroke-width:0.542;stroke-linecap:square;stroke-miterlimit:4;stroke-dasharray:none;stroke-opacity:1;stop-color:#000000" />
      <rect
         y="251.51199"
         x="69.591927"
         height="4.4582205"
         width="4.4582205"
         id="rect4312"
         style="fill:#fff000;fill-opacity:1;stroke:#000000;stroke-width:0.542;stroke-linecap:square;stroke-miterlimit:4;stroke-dasharray:none;stroke-opacity:1;stop-color:#000000" />
      <rect
         style="fill:#fff000;fill-opacity:1;stroke:#000000;stroke-width:0.542;stroke-linecap:square;stroke-miterlimit:4;stroke-dasharray:none;stroke-opacity:1;stop-color:#000000"
         id="rect4314"
         width="4.4582205"
         height="4.4582205"
         x="74.592003"
         y="251.51199" />
    </g>
    <rect
       y="260.6633"
       x="279.90735"
       height="4.4710135"
       width="4.4710135"
       id="rect4592"
       style="fill:#ff3cdc;fill-opacity:1;stroke:#000000;stroke-width:0.528987;stroke-linecap:square;stroke-miterlimit:4;stroke-dasharray:none;stop-color:#000000" />
    <g
       id="g4174"
       transform="translate(362.14285,252.8988)"
       style="fill:#00ff00;fill-opacity:1">
      <rect
         style="fill:#00ff00;fill-opacity:1;stroke:#000000;stroke-width:0.493981;stroke-linecap:square;stroke-miterlimit:4;stroke-dasharray:none;stop-color:#000000"
         id="rect4164"
         width="19.50602"
         height="19.50602"
         x="0.24699089"
         y="0.2469908" />
      <rect
         y="0.2469908"
         x="20.24699"
         height="19.50602"
         width="19.50602"
         id="rect4166"
         style="fill:#00ff00;fill-opacity:1;stroke:#000000;stroke-width:0.493981;stroke-linecap:square;stroke-miterlimit:4;stroke-dasharray:none;stop-color:#000000" />
      <rect
         style="fill:#00ff00;fill-opacity:1;stroke:#000000;stroke-width:0.493981;stroke-linecap:square;stroke-miterlimit:4;stroke-dasharray:none;stop-color:#000000"
         id="rect4168"
         width="19.50602"
         height="19.50602"
         x="40.24699"
         y="0.2469908" />
      <rect
         y="0.2469908"
         x="60.24699"
         height="19.50602"
         width="19.50602"
         id="rect4170"
         style="fill:#00ff00;fill-opacity:1;stroke:#000000;stroke-width:0.493981;stroke-linecap:square;stroke-miterlimit:4;stroke-dasharray:none;stop-color:#000000" />
      <rect
         style="fill:#00ff00;fill-opacity:1;stroke:#000000;stroke-width:0.493981;stroke-linecap:square;stroke-miterlimit:4;stroke-dasharray:none;stop-color:#000000"
         id="rect4172"
         width="19.50602"
         height="19.50602"
         x="80.246994"
         y="0.2469908" />
    </g>
    <path
       inkscape:connector-curvature="0"
       id="path4176"
       d="M 185.40873,262.89881 H 205.0075"
       style="fill:none;stroke:#000000;stroke-width:3;stroke-linecap:butt;stroke-linejoin:miter;stroke-miterlimit:4;stroke-dasharray:none;stroke-opacity:1;marker-end:url(#marker4204)" />
    <path
       style="fill:none;stroke:#000000;stroke-width:3;stroke-linecap:butt;stroke-linejoin:miter;stroke-miterlimit:4;stroke-dasharray:none;stroke-opacity:1;marker-end:url(#marker4194)"
       d="m 335.40885,262.89881 h 19.59877"
       id="path4178"
       inkscape:connector-curvature="0" />
    <g
       id="g4182"
       transform="matrix(0.13517525,0,0,0.13517525,85.432967,127.3239)">
      <path
         id="path4180"
         overflow="visible"
         display="inline"
         visibility="visible"
         marker="none"
         stroke="none"
         fill="#000000"
         d="m 19.7475,1000.7285 c 6.71919,-6.7192 16.56641,-8.39395 24.85922,-5.06023 l 29.588,-29.588 12.7943,-1.34786 -2.8948,16.90423 -7.7782,0.70708 -0.7071,7.77821 -7.7782,0.70707 -0.707,7.77819 -9.7891,9.78901 c 3.3338,8.2928 1.659,18.14 -5.0602,24.8592 -8.98201,8.9821 -23.54485,8.9821 -32.52691,0 -8.98204,-8.982 -8.98204,-23.5449 -10e-6,-32.5269 z m 7.07106,16.9706 c -2.34314,2.3431 -2.34313,6.1421 2e-5,8.4853 2.34313,2.3431 6.14215,2.3431 8.48528,0 2.34313,-2.3432 2.34313,-6.1422 -1e-5,-8.4853 -2.34314,-2.3432 -6.14216,-2.3432 -8.48529,0 z"
         style="color:#000000;enable-background:accumulate"
         inkscape:connector-curvature="0" />
    </g>
    <g
       transform="matrix(0.13517525,0,0,0.13517525,215.43309,127.3239)"
       id="g4186">
      <path
         inkscape:connector-curvature="0"
         style="color:#000000;enable-background:accumulate"
         d="m 19.7475,1000.7285 c 6.71919,-6.7192 16.56641,-8.39395 24.85922,-5.06023 l 29.588,-29.588 12.7943,-1.34786 -2.8948,16.90423 -7.7782,0.70708 -0.7071,7.77821 -7.7782,0.70707 -0.707,7.77819 -9.7891,9.78901 c 3.3338,8.2928 1.659,18.14 -5.0602,24.8592 -8.98201,8.9821 -23.54485,8.9821 -32.52691,0 -8.98204,-8.982 -8.98204,-23.5449 -10e-6,-32.5269 z m 7.07106,16.9706 c -2.34314,2.3431 -2.34313,6.1421 2e-5,8.4853 2.34313,2.3431 6.14215,2.3431 8.48528,0 2.34313,-2.3432 2.34313,-6.1422 -1e-5,-8.4853 -2.34314,-2.3432 -6.14216,-2.3432 -8.48529,0 z"
         fill="#000000"
         stroke="none"
         marker="none"
         visibility="visible"
         display="inline"
         overflow="visible"
         id="path4184" />
    </g>
    <g
       id="g4190"
       transform="matrix(0.13517525,0,0,0.13517525,365.4331,127.3239)">
      <path
         id="path4188"
         overflow="visible"
         display="inline"
         visibility="visible"
         marker="none"
         stroke="none"
         fill="#000000"
         d="m 19.7475,1000.7285 c 6.71919,-6.7192 16.56641,-8.39395 24.85922,-5.06023 l 29.588,-29.588 12.7943,-1.34786 -2.8948,16.90423 -7.7782,0.70708 -0.7071,7.77821 -7.7782,0.70707 -0.707,7.77819 -9.7891,9.78901 c 3.3338,8.2928 1.659,18.14 -5.0602,24.8592 -8.98201,8.9821 -23.54485,8.9821 -32.52691,0 -8.98204,-8.982 -8.98204,-23.5449 -10e-6,-32.5269 z m 7.07106,16.9706 c -2.34314,2.3431 -2.34313,6.1421 2e-5,8.4853 2.34313,2.3431 6.14215,2.3431 8.48528,0 2.34313,-2.3432 2.34313,-6.1422 -1e-5,-8.4853 -2.34314,-2.3432 -6.14216,-2.3432 -8.48529,0 z"
         style="color:#000000;enable-background:accumulate"
         inkscape:connector-curvature="0" />
    </g>
    <g
       id="g4355"
       transform="matrix(0.13517525,0,0,0.13517525,215.43309,147.32391)">
      <path
         id="path4353"
         overflow="visible"
         display="inline"
         visibility="visible"
         marker="none"
         stroke="none"
         fill="#000000"
         d="m 19.7475,1000.7285 c 6.71919,-6.7192 16.56641,-8.39395 24.85922,-5.06023 l 29.588,-29.588 12.7943,-1.34786 -2.8948,16.90423 -7.7782,0.70708 -0.7071,7.77821 -7.7782,0.70707 -0.707,7.77819 -9.7891,9.78901 c 3.3338,8.2928 1.659,18.14 -5.0602,24.8592 -8.98201,8.9821 -23.54485,8.9821 -32.52691,0 -8.98204,-8.982 -8.98204,-23.5449 -10e-6,-32.5269 z m 7.07106,16.9706 c -2.34314,2.3431 -2.34313,6.1421 2e-5,8.4853 2.34313,2.3431 6.14215,2.3431 8.48528,0 2.34313,-2.3432 2.34313,-6.1422 -1e-5,-8.4853 -2.34314,-2.3432 -6.14216,-2.3432 -8.48529,0 z"
         style="color:#000000;enable-background:accumulate"
         inkscape:connector-curvature="0" />
    </g>
    <rect
       style="fill:#ff3cdc;fill-opacity:1;stroke:#000000;stroke-width:0.528987;stroke-linecap:square;stroke-miterlimit:4;stroke-dasharray:none;stop-color:#000000"
       id="rect4601"
       width="4.4710135"
       height="4.4710135"
       x="279.90735"
       y="280.6633" />
    <text
       id="text4605"
       y="264.22287"
       x="432.05881"
       style="font-size:6.35px;line-height:1.25;font-family:Kokonor;-inkscape-font-specification:Kokonor;stroke-width:0.264583"
       xml:space="preserve"><tspan
         style="font-style:normal;font-variant:normal;font-weight:bold;font-stretch:normal;font-family:Arial;-inkscape-font-specification:'Arial Bold';text-align:center;text-anchor:middle;stroke-width:0.264583"
         y="264.22287"
         x="432.05881"
         id="tspan4603"
         sodipodi:role="line">1,2</tspan></text>
  </g>
</svg>
