<?xml version="1.0" encoding="UTF-8" standalone="no"?>
<!-- Created with DrawBerry (http://raphaelbost.free.fr/) -->
<svg 
 	 width = "32.000000" 
 	 height = "32.000000" 
xmlns:dc="http://purl.org/dc/elements/1.1/"
xmlns:cc="http://web.resource.org/cc/"
xmlns:rdf="http://www.w3.org/1999/02/22-rdf-syntax-ns#"
 xmlns:svg="http://www.w3.org/2000/svg"
 xmlns="http://www.w3.org/2000/svg" 
 xmlns:sodipodi="http://inkscape.sourceforge.net/DTD/sodipodi-0.dtd"
 xmlns:inkscape="http://www.inkscape.org/namespaces/inkscape"
 >
<g inkscape:label="New Layer" inkscape:groupmode="layer" id="New Layer">
<path  style="fill:#ff8140;fill-opacity:1.000000;stroke:none;" 
 d="M -4.415527,-2.732422 L 38.184082,-2.732422 L 38.184082,37.240234 L -4.415527,37.240234 L -4.415527,-2.732422  z"  />
<path  style="fill:#ffffff;fill-opacity:1.000000;stroke:#ffffff;stroke-width:1.000000px;stroke-opacity:1.000000;stroke-linecap:butt;stroke-linejoin:miter;" 
 d="M 3.977539,6.823242 L 28.125488,6.823242 L 28.125488,6.415527 L 3.977539,6.415527 L 3.977539,6.823242  z"  />
<path  style="fill:#ffffff;fill-opacity:1.000000;stroke:#ffffff;stroke-width:1.000000px;stroke-opacity:1.000000;stroke-linecap:butt;stroke-linejoin:miter;" 
 d="M 3.977539,11.823242 L 28.125488,11.823242 L 28.125488,11.415527 L 3.977539,11.415527 L 3.977539,11.823242  z"  />
<path  style="fill:#ffffff;fill-opacity:1.000000;stroke:#ffffff;stroke-width:1.000000px;stroke-opacity:1.000000;stroke-linecap:butt;stroke-linejoin:miter;" 
 d="M 3.977539,16.823242 L 28.125488,16.823242 L 28.125488,16.415527 L 3.977539,16.415527 L 3.977539,16.823242  z"  />
<path  style="fill:#ffffff;fill-opacity:1.000000;stroke:#ffffff;stroke-width:1.000000px;stroke-opacity:1.000000;stroke-linecap:butt;stroke-linejoin:miter;" 
 d="M 3.977539,21.823242 L 28.125488,21.823242 L 28.125488,21.415527 L 3.977539,21.415527 L 3.977539,21.823242  z"  />
<path  style="fill:#ffffff;fill-opacity:1.000000;stroke:#ffffff;stroke-width:1.000000px;stroke-opacity:1.000000;stroke-linecap:butt;stroke-linejoin:miter;" 
 d="M 3.977539,26.823242 L 28.125488,26.823242 L 28.125488,26.415527 L 3.977539,26.415527 L 3.977539,26.823242  z"  />
</g>
<g inkscape:label="Background" inkscape:groupmode="layer" id="Background">
</g>
</svg>
