<?xml version="1.0" encoding="UTF-8" standalone="no"?>
<svg
   xmlns:dc="http://purl.org/dc/elements/1.1/"
   xmlns:cc="http://creativecommons.org/ns#"
   xmlns:rdf="http://www.w3.org/1999/02/22-rdf-syntax-ns#"
   xmlns:svg="http://www.w3.org/2000/svg"
   xmlns="http://www.w3.org/2000/svg"
   xmlns:xlink="http://www.w3.org/1999/xlink"
   xmlns:sodipodi="http://sodipodi.sourceforge.net/DTD/sodipodi-0.dtd"
   xmlns:inkscape="http://www.inkscape.org/namespaces/inkscape"
   id="Flat"
   height="32"
   viewBox="0 0 32 32"
   width="32"
   version="1.1"
   sodipodi:docname="log-format.svg"
   inkscape:version="1.0.2 (e86c8708, 2021-01-15)">
  <metadata
     id="metadata854">
    <rdf:RDF>
      <cc:Work
         rdf:about="">
        <dc:format>image/svg+xml</dc:format>
        <dc:type
           rdf:resource="http://purl.org/dc/dcmitype/StillImage" />
        <dc:title></dc:title>
      </cc:Work>
    </rdf:RDF>
  </metadata>
  <defs
     id="defs852">
    <linearGradient
       inkscape:collect="always"
       id="linearGradient1448">
      <stop
         style="stop-color:#ff7200;stop-opacity:1"
         offset="0"
         id="stop1444" />
      <stop
         style="stop-color:#ffc217;stop-opacity:1"
         offset="1"
         id="stop1446" />
    </linearGradient>
    <linearGradient
       inkscape:collect="always"
       id="linearGradient860">
      <stop
         style="stop-color:#505050;stop-opacity:1"
         offset="0"
         id="stop856" />
      <stop
         style="stop-color:#969696;stop-opacity:1"
         offset="1"
         id="stop858" />
    </linearGradient>
    <linearGradient
       inkscape:collect="always"
       xlink:href="#linearGradient860"
       id="linearGradient862"
       x1="330.28809"
       y1="283.87866"
       x2="185.01627"
       y2="137.23788"
       gradientUnits="userSpaceOnUse"
       gradientTransform="matrix(0.06896552,0,0,0.06896552,67.034483,22.344828)" />
    <linearGradient
       inkscape:collect="always"
       xlink:href="#linearGradient1448"
       id="linearGradient1450"
       x1="248.46602"
       y1="353.76053"
       x2="249.44984"
       y2="27.339806"
       gradientUnits="userSpaceOnUse"
       gradientTransform="matrix(0.06896552,0,0,0.06896552,67.034483,22.344828)" />
  </defs>
  <sodipodi:namedview
     pagecolor="#ffffff"
     bordercolor="#666666"
     borderopacity="1"
     objecttolerance="10"
     gridtolerance="10"
     guidetolerance="10"
     inkscape:pageopacity="0"
     inkscape:pageshadow="2"
     inkscape:window-width="1536"
     inkscape:window-height="907"
     id="namedview850"
     showgrid="false"
     inkscape:zoom="7.1380113"
     inkscape:cx="31.614686"
     inkscape:cy="28.260754"
     inkscape:window-x="0"
     inkscape:window-y="25"
     inkscape:window-maximized="1"
     inkscape:current-layer="Flat" />
  <g
     id="g1460"
     transform="translate(-68.689655,-24)">
    <path
       d="M 94.068966,56 H 75.310345 A 3.3103448,3.3103448 0 0 1 72,52.689655 V 27.310345 A 3.3103448,3.3103448 0 0 1 75.310345,24 h 15.448276 l 6.620689,6.62069 V 52.689655 A 3.3103448,3.3103448 0 0 1 94.068966,56 Z"
       fill="#cfd2fc"
       id="path833"
       style="fill:url(#linearGradient1450);fill-opacity:1;stroke-width:0.0689655" />
    <path
       d="m 72,47.172414 h 25.37931 v 5.517241 A 3.3103448,3.3103448 0 0 1 94.068966,56 H 75.310345 A 3.3103448,3.3103448 0 0 1 72,52.689655 Z"
       fill="#5153ff"
       id="path835"
       style="fill:#ef6100;fill-opacity:1;stroke-width:0.0689655" />
    <path
       d="M 97.37931,30.62069 H 94.068966 A 3.3103448,3.3103448 0 0 1 90.758621,27.310345 V 24 Z"
       fill="#8690fa"
       id="path837"
       style="fill:#ef6100;fill-opacity:1;stroke-width:0.0689655" />
    <path
       d="m 85.207655,31.722345 a 3.8631724,3.8631724 0 0 0 -4.567793,-0.666552 l 1.446759,1.446828 a 1.1034483,1.1034483 0 0 1 -1.560483,1.560482 L 79.07931,32.616345 a 3.862069,3.862069 0 0 0 5.158276,5.274483 l 3.473242,4.080344 A 1.6551724,1.6551724 0 1 0 89.99469,39.68731 l -4.080345,-3.473517 a 3.8631034,3.8631034 0 0 0 -0.70669,-4.491448 z"
       fill="#8690fa"
       id="path839"
       style="fill:url(#linearGradient862);fill-opacity:1;stroke:#000000;stroke-width:0.104263;stroke-miterlimit:4;stroke-dasharray:none;stroke-opacity:1" />
    <g
       fill="#ffffff"
       id="g847"
       transform="matrix(0.06896552,0,0,0.06896552,67.034483,22.344828)">
      <path
         d="m 192,448 h -24 v -56 a 8,8 0 0 0 -16,0 v 64 a 8,8 0 0 0 8,8 h 32 a 8,8 0 0 0 0,-16 z"
         id="path841" />
      <path
         d="m 248,384 c -17.645,0 -32,17.944 -32,40 0,22.056 14.355,40 32,40 17.645,0 32,-17.944 32,-40 0,-22.056 -14.355,-40 -32,-40 z m 0,64 c -8.673,0 -16,-10.99 -16,-24 0,-13.01 7.327,-24 16,-24 8.673,0 16,10.99 16,24 0,13.01 -7.327,24 -16,24 z"
         id="path843" />
      <path
         d="m 352,416 h -16 a 8,8 0 0 0 0,16 h 7.049 c -2.252,9.217 -8.236,16 -15.049,16 -8.673,0 -16,-10.99 -16,-24 0,-13.01 7.327,-24 16,-24 a 10.675,10.675 0 0 1 4.588,1.058 8.0005422,8.0005422 0 0 0 6.824,-14.473 A 26.587,26.587 0 0 0 328,384 c -17.645,0 -32,17.944 -32,40 0,22.056 14.355,40 32,40 17.645,0 32,-17.944 32,-40 a 8,8 0 0 0 -8,-8 z"
         id="path845" />
    </g>
  </g>
</svg>
